<svg xmlns="http://www.w3.org/2000/svg" viewBox="0 0 3000 2400" width="3000" height="2400"><g transform="translate(1081.2 547.1999999999999) rotate(0.0 437.4 529.2) scale(1.389376384730836 1.3894650612026278)"><svg width="629.635" height="761.732" viewBox="0 0 629.635 761.732"><path d="M16.725 572.936v58.661c0 71.323 99.337 129.135 221.869 129.135 122.539 0 221.875-57.812 221.875-129.135v-58.418c-.225 71.211-443.744 71.08-443.744-.243z"/><path d="M238.594 761.732c-59.438 0-115.332-13.48-157.387-37.957-42.228-24.577-65.482-57.313-65.482-92.178v-58.661a1 1 0 1 1 2 0c0 15.939 23.537 29.448 68.066 39.067 39.887 8.617 93.699 13.412 151.526 13.503h1.591c109.799.002 220.452-17.911 220.561-52.332a1 1 0 0 1 1-.997h.002c.552 0 .998.448.998 1v58.418c0 34.865-23.256 67.602-65.482 92.178-42.056 24.477-97.952 37.957-157.393 37.957zM17.725 581.212v50.385c0 70.654 99.081 128.135 220.869 128.135s220.875-57.481 220.875-128.135v-50.172c-15.722 31.634-121.372 46.082-220.545 46.083h-1.609c-98.478-.155-203.888-14.77-219.59-46.295z"/><ellipse cx="238.597" cy="572.936" fill="#fff" rx="221.875" ry="129.136"/><path d="M238.597 703.072c-59.438 0-115.335-13.48-157.393-37.958-42.227-24.577-65.482-57.313-65.482-92.177s23.256-67.6 65.482-92.177c42.058-24.478 97.954-37.958 157.393-37.958s115.335 13.48 157.393 37.958c42.227 24.577 65.482 57.313 65.482 92.177s-23.256 67.6-65.482 92.177c-42.058 24.478-97.954 37.958-157.393 37.958zm0-258.271c-121.791 0-220.875 57.481-220.875 128.136s99.084 128.136 220.875 128.136 220.875-57.481 220.875-128.136-99.084-128.136-220.875-128.136z"/><path d="M78.349 662.251c-38.171-23.194-61.624-54.659-61.624-89.315v58.661c0 33.45 21.85 63.928 57.695 86.865l3.93-56.211z"/><path d="M74.42 719.462a.998.998 0 0 1-.539-.158c-37.503-23.997-58.156-55.145-58.156-87.707v-58.661a1 1 0 1 1 2 0c0 33.087 21.715 64.503 61.145 88.46.319.194.504.551.479.924l-3.93 56.211a1.001 1.001 0 0 1-.998.93zM17.725 590.471v41.126c0 31.446 19.806 61.619 55.815 85.106l3.77-53.915c-32.747-20.03-53.357-45.223-59.585-72.317z"/><path d="m64.935 563.038 197.488 114.99V521.825L64.537 407.709z" fill="#adc4cb"/><path d="M262.424 679.028a.993.993 0 0 1-.503-.136L64.433 563.902a1.001 1.001 0 0 1-.497-.862l-.398-155.33c0-.357.189-.688.499-.868a.995.995 0 0 1 1.001 0l197.887 114.117a1 1 0 0 1 .5.866v156.203a1 1 0 0 1-1 1zM65.934 562.462l195.49 113.827V522.403L65.542 409.442l.392 153.021z"/><path d="m64.686 407.672 197.887 114.117 150.084-86.045-198.405-113.813z" fill="#fff"/><path d="M262.572 522.789a.992.992 0 0 1-.5-.134L64.185 408.538a1.001 1.001 0 0 1 .003-1.734l149.566-85.741a.999.999 0 0 1 .995 0l198.404 113.813a.998.998 0 0 1-.001 1.735l-150.084 86.045a.997.997 0 0 1-.497.132zM66.691 407.675l195.883 112.961 148.072-84.892-196.395-112.66L66.69 407.675z"/><path d="m262.535 677.935 149.552-86.669.532-155.579-150.084 86.045z" fill="#fff"/><path d="M262.535 678.935a.997.997 0 0 1-1-1V521.732a1 1 0 0 1 .503-.868l150.084-86.045a1 1 0 0 1 1.497.871l-.532 155.58a.997.997 0 0 1-.499.862L263.036 678.8a.994.994 0 0 1-.501.135zm1-156.624v153.888l147.554-85.51.524-153.273z"/><path d="m88.641 523.368 70.891 41.277" fill="#fff"/><path d="M159.531 565.645a.985.985 0 0 1-.502-.136l-70.892-41.277a1 1 0 1 1 1.006-1.729l70.892 41.277a1 1 0 0 1-.504 1.865z"/><path d="M159.532 508.574 88.498 467.61" fill="#fff"/><path d="M159.531 509.574a.995.995 0 0 1-.499-.134l-71.034-40.964a1 1 0 1 1 1-1.733l71.034 40.964a1 1 0 0 1-.501 1.866zm-1.975 26.565a.994.994 0 0 1-.486-.127l-68.984-38.543c-.482-.27-.655-.879-.386-1.361s.877-.656 1.36-.385l68.984 38.543a1.001 1.001 0 0 1-.488 1.873z"/><path d="M567.555 462.47c0 4.854-6.844 8.79-15.286 8.79s-15.286-3.935-15.286-8.79v-46.129h30.559l.014 46.129z" fill="#fff"/><path d="M552.269 472.26c-9.133 0-16.287-4.3-16.287-9.79v-46.129a1 1 0 0 1 1-1h30.56a1 1 0 0 1 1 1l.014 46.13c0 5.49-7.153 9.79-16.286 9.79zm-14.287-54.919v45.129c0 4.223 6.543 7.79 14.287 7.79s14.286-3.567 14.286-7.79l-.014-45.129h-28.56z"/><path d="M567.555 416.652c0 4.854-6.844 8.79-15.286 8.79s-15.286-3.935-15.286-8.79c0-4.854 6.844-8.79 15.286-8.79s15.286 3.935 15.286 8.79z" fill="#fff"/><path d="M552.269 426.442c-9.133 0-16.287-4.3-16.287-9.79s7.154-9.79 16.287-9.79 16.286 4.3 16.286 9.79-7.153 9.79-16.286 9.79zm0-17.58c-7.744 0-14.287 3.567-14.287 7.79s6.543 7.79 14.287 7.79 14.286-3.567 14.286-7.79-6.542-7.79-14.286-7.79z"/><path d="M589.104 410.45c0 11.698-16.492 21.18-36.835 21.18-20.344 0-36.835-9.483-36.835-21.18v-37.872h73.638s.033 33.572.033 37.872z" fill="#fff"/><path d="M552.269 432.63c-20.863 0-37.836-9.95-37.836-22.181v-37.872a1 1 0 0 1 1-1h73.639a1 1 0 0 1 1 .999s.032 33.573.032 37.873c0 12.23-16.973 22.181-37.835 22.181zm-35.836-59.052v36.872c0 11.127 16.076 20.181 35.836 20.181s35.835-9.053 35.835-20.181c0-3.857-.026-31.268-.031-36.872z"/><path d="M589.104 373.328c0 11.698-16.492 21.18-36.835 21.18-20.344 0-36.835-9.483-36.835-21.18 0-11.698 16.492-21.18 36.835-21.18 20.344 0 36.835 9.483 36.835 21.18z" fill="#fff"/><path d="M552.269 395.508c-20.863 0-37.836-9.95-37.836-22.18s16.973-22.18 37.836-22.18 37.835 9.95 37.835 22.18-16.973 22.18-37.835 22.18zm0-42.36c-19.76 0-35.836 9.053-35.836 20.18s16.076 20.18 35.836 20.18 35.835-9.053 35.835-20.18-16.075-20.18-35.835-20.18z"/><path d="M610.849 362.801c0 18.603-26.228 33.684-58.581 33.684s-58.581-15.081-58.581-33.684v-60.229h117.11s.052 53.391.052 60.229z" fill="#fff"/><path d="M552.269 397.485c-32.854 0-59.581-15.559-59.581-34.684v-60.229a1 1 0 0 1 1-1h117.109a1 1 0 0 1 1 .999s.053 53.392.053 60.23c0 19.125-26.728 34.684-59.581 34.684zm-57.581-93.913v59.229c0 18.022 25.831 32.684 57.581 32.684s57.581-14.662 57.581-32.684c0-6.284-.045-51.879-.052-59.229z"/><ellipse cx="552.268" cy="303.763" fill="#adc4cb" rx="58.581" ry="33.684"/><path d="M552.269 338.448c-32.854 0-59.581-15.56-59.581-34.684s26.728-34.684 59.581-34.684 59.581 15.559 59.581 34.684-26.728 34.684-59.581 34.684zm0-67.368c-31.75 0-57.581 14.662-57.581 32.684s25.831 32.684 57.581 32.684 57.581-14.662 57.581-32.684-25.831-32.684-57.581-32.684z"/><path d="M616.085 215.167c17.143 29.693 16.501 59.813-.565 69.666a96163.048 96163.048 0 0 0-35.321 20.448l-57.085-109.958s26.174-15.077 30.476-17.561c17.066-9.853 45.351 7.712 62.494 37.405z" fill="#fff"/><path d="M580.199 306.28a.998.998 0 0 1-.887-.539l-57.084-109.958a1 1 0 0 1 .389-1.327s26.173-15.077 30.475-17.56c8.522-4.922 19.973-3.543 32.236 3.883 11.957 7.24 23.188 19.275 31.624 33.888 8.336 14.438 12.839 29.633 12.68 42.785-.16 13.24-4.993 23.272-13.61 28.247-4.012 2.316-35.32 20.447-35.32 20.447a.996.996 0 0 1-.501.135zm-55.756-110.57 56.161 108.179c5.168-2.993 30.812-17.842 34.416-19.923 16.668-9.624 16.755-39.625.198-68.3-8.271-14.326-19.254-26.108-30.928-33.177-11.61-7.031-22.336-8.402-30.2-3.862-3.845 2.22-25.16 14.499-29.647 17.083z"/><path d="M585.276 229.223c17.143 29.693 14.341 65.058-2.725 74.911s-44.797-6.231-61.94-35.924-17.206-61.751-.141-71.604c17.066-9.853 47.663 2.924 64.806 32.617z"/><path d="M571.334 308.001c-16.782 0-37.696-15.228-51.59-39.291-17.392-30.123-17.29-62.857.226-72.97 16.718-9.652 48.005 1.519 66.172 32.983 8.114 14.054 12.342 30.618 11.599 45.446-.733 14.627-6.087 25.865-14.689 30.831-3.523 2.034-7.49 3.001-11.717 3.001zM533.757 194.33c-4.787 0-9.154 1.044-12.787 3.142-16.561 9.562-16.334 41.07.507 70.238 16.84 29.168 44.014 45.118 60.574 35.558 8.003-4.621 12.993-15.263 13.692-29.199.724-14.453-3.407-30.616-11.334-44.345-13.56-23.486-34.493-35.393-50.652-35.393z"/><path d="M130.314 38.974c16.769-29.045 43.895-44.777 60.587-35.139l168.595 97.56-60.633 105.018-168.687-97.4c-16.692-9.638-16.631-40.995.138-70.039z" fill="#fff"/><path d="M298.863 207.413a.994.994 0 0 1-.5-.134c-1.684-.972-168.336-97.198-168.687-97.399-8.397-4.849-13.007-15.009-12.979-28.611.026-13.401 4.555-28.599 12.751-42.795s19.094-25.717 30.687-32.44c11.767-6.824 22.87-7.913 31.267-3.064l168.596 97.56a.999.999 0 0 1 .365 1.365L299.73 206.913a1.004 1.004 0 0 1-.866.5zM179.807 1.988c-5.697 0-12.054 1.939-18.669 5.775-11.294 6.551-21.934 17.812-29.957 31.71-8.024 13.898-12.458 28.743-12.483 41.799-.025 12.855 4.229 22.4 11.979 26.874l167.821 96.9 59.634-103.287L190.403 4.7c-3.14-1.813-6.715-2.713-10.595-2.713zm-49.492 36.986h.01z"/><ellipse cx="330.857" cy="154.872" fill="#fff" rx="60.725" ry="34.901" transform="matrix(.5 -.8660254 .8660254 .5 31.305 363.966)"/><path d="M311.464 211.265c-4.139 0-8.019-.946-11.47-2.938-17.144-9.898-17.246-41.93-.229-71.406 8.196-14.196 19.094-25.717 30.687-32.44 11.765-6.824 22.871-7.913 31.267-3.065s13.007 15.009 12.979 28.61c-.025 13.401-4.554 28.599-12.75 42.795-13.593 23.542-34.061 38.442-50.484 38.443zm38.66-110.829c-5.696 0-12.054 1.939-18.669 5.776-11.294 6.551-21.934 17.812-29.957 31.71-16.466 28.52-16.692 59.327-.504 68.674 16.189 9.347 42.755-6.254 59.222-34.773 8.024-13.898 12.457-28.743 12.482-41.799.025-12.856-4.229-22.4-11.979-26.875-3.14-1.813-6.715-2.713-10.595-2.713zm-49.492 36.986h.01z"/><path d="M321.227 149.343c6.572-11.384 17.204-17.55 23.746-13.772l52.171 30.101-23.764 41.161-52.207-30.039c-6.542-3.777-6.518-16.068.054-27.451z" fill="#adc4cb"/><path d="M373.379 207.833a.991.991 0 0 1-.498-.134l-52.207-30.039c-3.488-2.014-5.403-6.184-5.393-11.742.011-5.357 1.814-11.421 5.079-17.076s7.615-10.249 12.249-12.937c4.808-2.789 9.378-3.215 12.863-1.202s.451.26 52.172 30.101a1.002 1.002 0 0 1 .366 1.366l-23.765 41.161a1 1 0 0 1-.867.5zm-32.758-72.378c-2.124 0-4.511.733-7.009 2.181-4.336 2.515-8.427 6.85-11.52 12.207-3.093 5.357-4.802 11.067-4.812 16.08-.009 4.812 1.551 8.365 4.392 10.005l51.34 29.54 22.766-39.43c-6.784-3.914-51.109-29.489-51.304-29.6-1.137-.656-2.437-.982-3.854-.982zm-19.395 13.887h.01z"/><ellipse cx="385.92" cy="186.632" fill="#fff" rx="23.8" ry="13.679" transform="matrix(.5 -.8660254 .8660254 .5 31.332 427.532)"/><path d="M378.363 209.362c-1.761 0-3.396-.415-4.844-1.252-3.487-2.013-5.402-6.183-5.392-11.741.011-5.357 1.814-11.421 5.079-17.076 6.838-11.843 18.104-18.186 25.113-14.138 7.009 4.047 7.148 16.974.312 28.817-3.265 5.655-7.615 10.249-12.249 12.937-2.811 1.63-5.54 2.454-8.02 2.454zm15.064-43.47c-5.896 0-13.414 5.612-18.488 14.401-3.093 5.357-4.802 11.067-4.812 16.08-.009 4.812 1.551 8.365 4.392 10.005 2.839 1.64 6.697 1.215 10.86-1.2 4.336-2.515 8.427-6.85 11.52-12.207 6.286-10.888 6.475-22.59.421-26.085-1.167-.674-2.484-.995-3.893-.995z"/><path d="M368.443 176.807c16.768-29.045 43.894-44.777 60.587-35.139l133.111 76.801-60.633 105.018-133.203-76.641c-16.692-9.638-16.631-40.995.138-70.039z" fill="#fff"/><path d="M501.507 324.488a1 1 0 0 1-.498-.133l-133.204-76.642c-8.396-4.848-13.006-15.008-12.979-28.61.026-13.401 4.555-28.599 12.751-42.795 8.196-14.197 19.094-25.718 30.687-32.441 11.765-6.824 22.87-7.913 31.267-3.064l133.111 76.801a1.002 1.002 0 0 1 .366 1.366l-60.633 105.018a1 1 0 0 1-.867.5zm-83.573-184.667c-5.697 0-12.053 1.939-18.668 5.775-11.294 6.55-21.934 17.812-29.957 31.71-8.024 13.898-12.458 28.742-12.483 41.799-.025 12.855 4.229 22.399 11.979 26.874l132.336 76.143 59.634-103.287-132.243-76.3c-3.142-1.814-6.717-2.714-10.598-2.714zm-49.491 36.986h.01z"/><ellipse cx="533.501" cy="271.947" fill="#fff" rx="60.725" ry="34.901" transform="matrix(.5 -.8660254 .8660254 .5 31.237 597.999)"/><path d="M514.227 328.386c-4.226 0-8.136-.99-11.588-2.983-8.396-4.848-13.007-15.009-12.979-28.611.026-13.4 4.556-28.6 12.751-42.795 8.196-14.196 19.094-25.717 30.687-32.44 11.765-6.824 22.871-7.913 31.267-3.065s13.007 15.009 12.979 28.61c-.026 13.401-4.555 28.599-12.751 42.795s-19.094 25.717-30.687 32.44c-6.928 4.018-13.627 6.048-19.679 6.048zm38.542-110.875c-5.696 0-12.054 1.939-18.669 5.776-11.294 6.551-21.934 17.812-29.957 31.71-8.024 13.898-12.458 28.743-12.483 41.799-.025 12.856 4.229 22.4 11.979 26.874 7.75 4.476 18.144 3.387 29.264-3.063 11.294-6.551 21.934-17.812 29.957-31.71 8.024-13.898 12.458-28.743 12.483-41.799.025-12.856-4.229-22.4-11.979-26.875-3.14-1.813-6.715-2.713-10.595-2.713zm-49.492 36.986h.01z"/><path d="M184.769 71.819c-8.07-13.978-21.123-21.548-29.156-16.91L91.555 91.868l29.179 50.538 64.102-36.883c8.033-4.638 8.004-19.728-.066-33.705z" fill="#adc4cb"/><path d="M120.734 143.407a.998.998 0 0 1-.867-.5L90.688 92.369a1.002 1.002 0 0 1 .366-1.366l64.06-36.96c4.204-2.428 9.733-1.906 15.564 1.476 5.655 3.28 10.967 8.892 14.956 15.801s6.193 14.315 6.206 20.853c.013 6.739-2.298 11.789-6.506 14.219l-64.103 36.883a.991.991 0 0 1-.498.134zM92.921 92.235l28.18 48.807 63.234-36.384c3.563-2.057 5.518-6.49 5.506-12.483-.013-6.194-2.121-13.246-5.938-19.857-3.816-6.611-8.869-11.963-14.228-15.071-5.185-3.007-10.001-3.53-13.563-1.473l-63.191 36.46z"/><ellipse cx="105.337" cy="117.604" fill="#fff" rx="16.795" ry="29.223" transform="matrix(.8660254 -.5 .5 .8660254 -44.689 68.424)"/><path d="M114.613 145.283c-3.004 0-6.315-1-9.731-2.981-5.655-3.28-10.967-8.892-14.956-15.801s-6.193-14.315-6.206-20.853c-.013-6.739 2.298-11.789 6.506-14.219 4.207-2.43 9.736-1.906 15.566 1.475 5.655 3.28 10.967 8.892 14.956 15.801 3.989 6.909 6.193 14.315 6.206 20.853.013 6.739-2.298 11.789-6.506 14.219-1.742 1.006-3.712 1.506-5.835 1.506zM96.066 91.926c-1.777 0-3.41.41-4.841 1.236-3.563 2.057-5.518 6.49-5.506 12.483.013 6.194 2.121 13.246 5.938 19.857 3.816 6.611 8.869 11.963 14.228 15.071 5.183 3.007 9.999 3.531 13.563 1.474 3.563-2.057 5.518-6.49 5.506-12.483-.013-6.194-2.121-13.246-5.938-19.857-3.816-6.611-8.869-11.963-14.228-15.071-3.102-1.799-6.072-2.709-8.722-2.709z"/><circle cx="554.516" cy="270.079" fill="#fff" r="53.409"/><path d="M554.516 324.488c-30.001 0-54.408-24.408-54.408-54.409s24.407-54.409 54.408-54.409 54.409 24.408 54.409 54.409-24.408 54.409-54.409 54.409zm0-106.818c-28.898 0-52.408 23.51-52.408 52.409s23.51 52.409 52.408 52.409 52.409-23.51 52.409-52.409-23.511-52.409-52.409-52.409z"/><path d="M523.206 268.79c17.143 29.693 16.501 59.813-.565 69.666a96163.048 96163.048 0 0 0-35.321 20.448L431.29 248.56s24.567-15.065 28.869-17.549c17.066-9.853 45.903 8.086 63.046 37.779z" fill="#fff"/><path d="M487.32 359.904a.996.996 0 0 1-.891-.547L430.4 249.013a1 1 0 0 1 .369-1.305c.245-.151 24.627-15.1 28.892-17.562 8.522-4.921 20.069-3.475 32.513 4.071 11.956 7.25 23.583 19.67 31.899 34.074 8.336 14.438 12.839 29.633 12.68 42.785-.16 13.24-4.993 23.272-13.61 28.247-4.012 2.316-35.32 20.447-35.32 20.447a.999.999 0 0 1-.501.135zM432.6 248.93l55.133 108.579c5.188-3.004 30.806-17.838 34.408-19.919 16.668-9.623 16.755-39.624.198-68.3-8.153-14.122-19.526-26.283-31.204-33.364-11.791-7.15-22.613-8.588-30.476-4.049-3.808 2.198-23.822 14.456-28.06 17.053z"/><ellipse cx="458.631" cy="303.994" fill="#fff" rx="35.68" ry="62.081" transform="matrix(.8660254 -.5 .5 .8660254 -90.552 270.043)"/><path d="M478.336 361.67c-6.184 0-13.026-2.073-20.106-6.18-11.848-6.871-22.986-18.646-31.364-33.156-8.377-14.51-13.006-30.044-13.032-43.74-.027-13.897 4.681-24.278 13.258-29.23 17.516-10.112 45.914 6.166 63.307 36.29 8.377 14.51 13.006 30.044 13.032 43.74.027 13.897-4.681 24.278-13.258 29.23-3.525 2.036-7.521 3.046-11.836 3.046zm-39.399-113.348c-3.92 0-7.588.894-10.846 2.774-7.931 4.579-12.284 14.343-12.258 27.494.026 13.352 4.56 28.532 12.765 42.744s19.085 25.728 30.635 32.426c11.378 6.598 22.01 7.709 29.939 3.131 7.931-4.579 12.284-14.342 12.258-27.494-.026-13.351-4.561-28.533-12.765-42.744-13.527-23.43-33.723-38.332-49.729-38.332z"/><path d="M473.598 295.766c9.367 16.225 11.32 32.222 1.995 37.606s-24.478-3.405-33.845-19.629c-9.367-16.225-9.402-33.742-.077-39.126s22.56 4.924 31.927 21.149z" fill="#dbf301"/><path d="M469.399 335.964c-3.459 0-7.275-1.154-11.216-3.438-6.541-3.794-12.687-10.287-17.303-18.283-9.628-16.676-9.498-34.841.289-40.492 4.795-2.769 10.681-1.898 17.02 2.517 5.723 3.986 11.502 10.733 16.274 18.998 10.337 17.904 10.991 33.566 1.629 38.972-1.998 1.153-4.257 1.726-6.693 1.726zm-22.297-61.789a9.71 9.71 0 0 0-4.933 1.308c-8.832 5.1-8.633 22.039.443 37.76 4.444 7.698 10.33 13.932 16.574 17.553 6.07 3.52 11.719 4.128 15.905 1.71 8.196-4.732 7.226-19.635-2.361-36.24-4.628-8.016-10.198-14.536-15.685-18.357-2.713-1.89-6.297-3.734-9.944-3.734z"/><path d="m260.977 382.608 47.04-74.815 27.552-16.197a20.544 20.544 0 0 1 13.981-2.541c9.311 1.641 24.893 7.003 39.81 24.115 21.555 24.727 30.251 58.467 14.638 88.638l-14.278 26.827-24.956 14.408-103.787-60.434z" fill="#fff"/><path d="M364.764 444.042a.993.993 0 0 1-.503-.136l-103.787-60.434a1.004 1.004 0 0 1-.344-1.396l47.04-74.816c.085-.135.202-.249.34-.33l27.552-16.197a21.566 21.566 0 0 1 14.662-2.664c10.286 1.813 25.643 7.525 40.39 24.442 23.695 27.181 29.355 61.573 14.772 89.755l-14.283 26.837a.993.993 0 0 1-.383.396l-24.956 14.408a1 1 0 0 1-.5.134zm-102.39-61.777 102.392 59.622 24.206-13.975 14.144-26.574c14.191-27.426 8.634-60.962-14.51-87.511-14.363-16.477-29.261-22.03-39.229-23.787a19.579 19.579 0 0 0-13.301 2.418l-27.342 16.073-46.359 73.733z"/><path d="m260.977 382.608 26.069-51.925s20.971-42.878 56.821-21.168c37.3 22.588 53.88 67.681 33.84 106.41l-12.943 27.116c-8.09-4.888-103.787-60.434-103.787-60.434z"/><path d="M364.764 444.042c-.181 0-.359-.049-.518-.144-7.989-4.828-102.814-59.869-103.771-60.425a1 1 0 0 1-.392-1.313l26.069-51.925c.417-.852 10.528-21.155 28.949-26.565 9.402-2.761 19.256-1.082 29.283 4.991 39.046 23.645 53.753 69.957 34.21 107.725l-12.929 27.087a.997.997 0 0 1-.902.569zm-102.471-61.826c9.047 5.252 90.041 52.274 102.041 59.404l12.471-26.125c19.067-36.85 4.679-82.031-33.455-105.124-9.526-5.768-18.838-7.379-27.675-4.786-17.57 5.155-27.631 25.334-27.73 25.538l-25.651 51.093z"/><ellipse cx="332.215" cy="365.893" fill="#fff" rx="19.713" ry="34.299" transform="matrix(.8660254 -.5 .5 .8660254 -138.438 215.128)"/><path d="M343.103 398.207c-3.495 0-7.353-1.166-11.335-3.476-6.612-3.835-12.823-10.398-17.49-18.481s-7.245-16.745-7.261-24.389c-.016-7.845 2.666-13.718 7.549-16.538 4.885-2.818 11.31-2.204 18.097 1.732 6.612 3.835 12.823 10.398 17.49 18.481s7.245 16.745 7.261 24.388c.016 7.845-2.666 13.718-7.549 16.538-2.019 1.165-4.3 1.744-6.762 1.744zm-21.769-62.625c-2.117 0-4.063.489-5.769 1.474-4.237 2.446-6.563 7.703-6.549 14.801.015 7.3 2.498 15.607 6.993 23.393 4.494 7.785 10.447 14.089 16.762 17.751 6.143 3.563 11.857 4.175 16.093 1.729 4.237-2.446 6.563-7.703 6.549-14.801-.015-7.3-2.498-15.607-6.993-23.393-4.494-7.785-10.447-14.089-16.762-17.751-3.668-2.127-7.185-3.203-10.324-3.203z"/><path d="M361.158 438.076c23.771-18.022 23.044-54.748 2.424-81.053L134.601 59.581c-10.198-13.247-26.23-20.197-41.638-16.409C87.26 44.574 22.949 81.94 22.949 81.94L297.89 474.572z" fill="#fff"/><path d="M297.891 475.572a1 1 0 0 1-.82-.426L22.129 82.514a.999.999 0 0 1 .318-1.439C25.078 79.546 86.949 43.62 92.725 42.2c15.193-3.736 31.948 2.845 42.669 16.77l228.98 297.443c11.861 15.131 17.396 33.643 15.18 50.78-1.706 13.194-7.858 24.149-17.791 31.68a1.041 1.041 0 0 1-.104.069l-63.269 36.496c-.157.09-.329.134-.499.134zM24.392 82.258l273.792 390.99 62.42-36.007c9.467-7.198 15.333-17.676 16.967-30.305 2.117-16.365-3.406-34.794-14.775-49.297L133.81 60.191c-10.237-13.297-26.177-19.596-40.608-16.048-4.339 1.067-46.353 25.079-68.81 38.116zm336.767 355.818h.01z"/><path d="M299.42 473.687c23.771-18.022 24.214-57.346-3.258-90.187L72.864 95.192c-13.973-18.15-38.78-24.343-58.163-7.564-34.629 29.976 7.308 83.587 7.308 83.587L242.16 457.189c30.306 34.839 57.26 16.499 57.26 16.499z" fill="#fff"/><path d="M281.328 479.42c-10.718 0-24.986-4.405-39.923-21.576L21.217 171.825c-.102-.129-10.65-13.721-16.789-30.825-8.206-22.861-4.88-41.578 9.618-54.129 8.696-7.528 18.902-10.939 29.519-9.868 11.41 1.152 22.379 7.559 30.092 17.579l223.297 288.307c15.332 18.328 22.886 39.933 20.698 59.246-1.516 13.393-7.776 24.882-17.627 32.35-.014.01-.027.021-.042.03-.142.096-7.461 4.906-18.654 4.906zM39.772 78.811c-8.761 0-17.138 3.271-24.418 9.573-33.508 29.006 7.028 81.686 7.442 82.215l220.155 285.98c11.913 13.692 25.186 20.933 38.391 20.933.227 0 .452-.002.679-.006 9.873-.186 16.42-4.372 16.818-4.633 9.532-7.238 15.351-17.944 16.824-30.963 2.126-18.772-5.262-39.827-20.269-57.767L72.073 95.804c-7.381-9.588-17.845-15.714-28.71-16.811a35.848 35.848 0 0 0-3.591-.182zm259.646 394.877h.01z"/><path d="M242.16 457.188c30.306 34.839 57.26 16.499 57.26 16.499 23.771-18.022 24.214-57.346-3.258-90.187l-4.225-5.455z"/><path d="M281.32 479.417c-10.721 0-24.986-4.411-39.915-21.572a1 1 0 0 1-.092-1.188l49.776-79.144c.174-.276.472-.451.798-.467.332-.005.639.128.84.387l4.226 5.456c15.332 18.328 22.886 39.933 20.698 59.246-1.516 13.393-7.776 24.882-17.627 32.35-.163.111-7.496 4.933-18.704 4.933zm-37.917-22.327c29.187 33.031 55.194 15.948 55.454 15.771 9.506-7.208 15.332-17.921 16.807-30.952 2.126-18.772-5.262-39.827-20.269-57.767l-3.374-4.354z"/><ellipse cx="47.147" cy="134.46" fill="#dbf301" rx="19.713" ry="34.299" transform="matrix(.8660254 -.5 .5 .8660254 -60.913 41.587)"/><path d="M58.034 166.773c-3.495 0-7.353-1.166-11.335-3.475-6.612-3.835-12.823-10.399-17.49-18.482s-7.245-16.744-7.261-24.388c-.016-7.845 2.666-13.718 7.549-16.537 4.885-2.82 11.31-2.204 18.097 1.731 6.612 3.835 12.823 10.398 17.49 18.482s7.245 16.744 7.261 24.388c.016 7.845-2.666 13.718-7.549 16.538-2.019 1.165-4.3 1.744-6.762 1.744zm-21.769-62.625c-2.117 0-4.063.489-5.769 1.474-4.237 2.446-6.563 7.703-6.549 14.802.015 7.3 2.498 15.607 6.993 23.392 4.494 7.785 10.447 14.09 16.762 17.752 6.142 3.562 11.857 4.176 16.093 1.73 4.237-2.446 6.563-7.703 6.549-14.802-.015-7.3-2.498-15.607-6.993-23.392-4.494-7.785-10.447-14.089-16.762-17.752-3.668-2.127-7.185-3.203-10.324-3.203z"/><path d="m124.015 272.815 42.511-31.405" fill="#fff"/><path d="M124.016 273.815a1 1 0 0 1-.595-1.805l42.511-31.404a1 1 0 1 1 1.187 1.609l-42.511 31.404a.996.996 0 0 1-.593.196z"/><path d="m135.571 201.285-41.426 31.224" fill="#fff"/><path d="M94.146 233.509a.998.998 0 0 1-.603-1.798l41.427-31.224a1 1 0 1 1 1.203 1.597l-41.427 31.224a.994.994 0 0 1-.601.201z"/><path d="m151.089 221.137-42.24 31.838" fill="#fff"/><path d="M108.85 253.975a.998.998 0 0 1-.603-1.798l42.241-31.838a1 1 0 1 1 1.203 1.597l-42.241 31.838a.994.994 0 0 1-.601.201z"/><path d="m159.143 441.471 47.04-74.815 27.552-16.197a20.544 20.544 0 0 1 13.981-2.541c9.311 1.641 24.893 7.003 39.81 24.115 21.555 24.727 30.251 58.467 14.638 88.638l-14.278 26.827-24.956 14.408-103.787-60.434z" fill="#fff"/><path d="M262.93 502.905a.993.993 0 0 1-.503-.136L158.64 442.335a1.004 1.004 0 0 1-.344-1.396l47.04-74.816a.994.994 0 0 1 .34-.33l27.552-16.197a21.572 21.572 0 0 1 14.662-2.664c10.285 1.813 25.642 7.525 40.39 24.442 23.694 27.182 29.354 61.574 14.771 89.755l-14.282 26.837a.993.993 0 0 1-.383.396L263.43 502.77a1 1 0 0 1-.5.134zm-102.39-61.777 102.392 59.622 24.206-13.975 14.143-26.574c14.192-27.426 8.635-60.962-14.509-87.511-14.364-16.477-29.262-22.03-39.229-23.787a19.584 19.584 0 0 0-13.301 2.418L206.9 367.394l-46.359 73.733z"/><path d="m159.143 441.471 26.069-51.925s20.971-42.878 56.821-21.168c37.3 22.588 53.88 67.681 33.84 106.41l-12.943 27.116c-8.09-4.888-103.787-60.434-103.787-60.434z" fill="#fff"/><path d="M262.93 502.905c-.181 0-.359-.049-.518-.144-7.989-4.828-102.814-59.869-103.771-60.425a1 1 0 0 1-.392-1.313l26.069-51.925c.417-.852 10.527-21.154 28.948-26.565 9.398-2.763 19.253-1.083 29.284 4.991 39.045 23.645 53.752 69.957 34.21 107.725l-12.929 27.087a.997.997 0 0 1-.902.569zm-102.471-61.826c9.047 5.252 90.041 52.274 102.041 59.404l12.471-26.125c19.066-36.851 4.678-82.032-33.455-105.124-9.526-5.769-18.839-7.379-27.676-4.786-17.57 5.154-27.63 25.334-27.729 25.537l-25.651 51.093z"/><ellipse cx="230.38" cy="424.756" fill="#dbf301" rx="19.713" ry="34.299" transform="matrix(.8660254 -.5 .5 .8660254 -181.513 172.097)"/><path d="M241.36 457.035c-9.444 0-21.161-8.487-28.918-21.922-9.731-16.857-9.602-35.216.289-40.926 4.881-2.818 11.309-2.205 18.096 1.732 6.612 3.835 12.824 10.398 17.491 18.481 9.731 16.855 9.603 35.215-.288 40.926-2.007 1.159-4.265 1.709-6.67 1.709zm-21.861-62.59c-2.116 0-4.062.488-5.768 1.474-8.936 5.159-8.736 22.292.443 38.194 9.181 15.901 23.919 24.64 32.855 19.481 8.936-5.16 8.736-22.293-.444-38.194-4.495-7.785-10.447-14.089-16.763-17.751-3.668-2.127-7.185-3.203-10.324-3.203z"/><path d="m567.53 429.896-.545 116.91c0 2.06-.671 3.717-2.081 5.8l-12.637 19.753-12.192-19.351c-1.709-2.614-3.07-4.084-3.07-6.202v-116.91s6.871 1.419 15.262 1.597c8.633.184 15.262-1.597 15.262-1.597z" fill="#87c159"/><path d="M552.268 573.358h-.004a.995.995 0 0 1-.842-.467l-12.191-19.351a70.026 70.026 0 0 0-.93-1.377c-1.281-1.867-2.294-3.342-2.294-5.358v-116.91a1.002 1.002 0 0 1 1.202-.979c.068.014 6.886 1.403 15.081 1.577 8.371.181 14.915-1.546 14.981-1.563a1.003 1.003 0 0 1 1.259.971l-.545 116.91c0 2.149-.652 3.992-2.253 6.355l-12.622 19.731a1.003 1.003 0 0 1-.843.461zm-14.261-142.257v115.705c0 1.396.772 2.522 1.942 4.227.303.441.627.913.964 1.428l11.361 18.032 11.787-18.426c1.389-2.05 1.924-3.52 1.924-5.261l.539-115.645c-2.346.51-7.722 1.474-14.277 1.333a96.917 96.917 0 0 1-14.24-1.393z"/></svg></g><g transform="translate(182.4 321.59999999999997) rotate(0.0 1341.0 876.5999999999999) scale(1.388770942893656 1.3882916932930116)"><svg width="1931.204" height="1262.847" viewBox="0 0 1931.204 1262.847"><path d="M1928.25 703.158a6.14 6.14 0 0 1-2.629 5.053c-1.289.907-205.865 118.205-205.865 118.205l-348.643-706.752S1574.93 2.646 1576.477 1.835c2.059-1.08 4.634-1.189 6.941.13l333.449 190.708a26.486 26.486 0 0 1 13.337 23.089l-1.953 487.397z" fill="#fff"/><path d="M1719.756 827.417a1.003 1.003 0 0 1-.897-.557l-348.643-706.754a1 1 0 0 1 .399-1.31c8.323-4.778 203.852-117.037 205.398-117.848a8.185 8.185 0 0 1 7.902.147l333.449 190.708a27.534 27.534 0 0 1 13.84 23.961l-1.953 487.397c-.009 2.37-1.122 4.509-3.054 5.867-1.29.907-185 106.247-205.943 118.255a1.008 1.008 0 0 1-.498.132zm-347.331-707.353 347.757 704.956c14.911-8.55 202.639-116.196 204.884-117.639 1.375-.968 2.178-2.513 2.185-4.226l1.953-487.397a25.532 25.532 0 0 0-12.833-22.217L1582.922 2.833c-1.884-1.077-4.063-1.118-5.98-.113-1.827.976-190.428 109.255-204.517 117.344z"/><path d="m1711.804 310.414-333.446-190.709c-4.832-2.763-10.836.737-10.817 6.301l1.835 485.599a25.286 25.286 0 0 0 12.564 21.76l331.913 192.881c4.134 2.402 9.318-.566 9.337-5.35l1.952-487.395a26.486 26.486 0 0 0-13.34-23.088z" fill="#fff"/><path d="M1716.977 828.099a7.197 7.197 0 0 1-3.625-.988l-331.914-192.88c-8.021-4.667-13.026-13.335-13.061-22.621l-1.835-485.599c-.01-2.976 1.517-5.645 4.086-7.142 2.569-1.496 5.644-1.508 8.227-.031l333.446 190.708a27.536 27.536 0 0 1 13.843 23.959l-1.952 487.396a7.143 7.143 0 0 1-3.628 6.232 7.198 7.198 0 0 1-3.587.966zm-342.21-708.357a6.207 6.207 0 0 0-3.133.856 6.167 6.167 0 0 0-3.093 5.406l1.835 485.598c.033 8.58 4.656 16.588 12.067 20.9l331.913 192.88c1.63.947 3.578.952 5.213.016s2.615-2.62 2.622-4.505l1.952-487.395a25.533 25.533 0 0 0-12.836-22.216l-333.446-190.708a6.219 6.219 0 0 0-3.094-.832z"/><ellipse cx="1471.778" cy="240.798" fill="#fff" rx="17.481" ry="30.425" transform="matrix(.8660254 -.5 .5 .8660254 76.782 768.15)"/><path d="M1481.528 269.542c-8.42 0-18.853-7.548-25.755-19.503-8.664-15.006-8.533-31.36.292-36.455 4.367-2.521 10.107-1.975 16.162 1.538 5.882 3.412 11.406 9.25 15.555 16.437 8.664 15.006 8.533 31.36-.292 36.455-1.795 1.036-3.813 1.528-5.963 1.528zm-19.405-55.517c-1.857 0-3.563.428-5.057 1.291-7.87 4.544-7.673 19.672.44 33.723s21.115 21.786 28.985 17.243c7.87-4.544 7.673-19.672-.44-33.723-3.977-6.889-9.243-12.467-14.827-15.707-3.236-1.878-6.336-2.827-9.101-2.827z"/><ellipse cx="1616.855" cy="331.718" fill="#87c159" rx="17.481" ry="30.425" transform="matrix(.8660254 -.5 .5 .8660254 50.758 852.869)"/><path d="M1626.516 360.494c-3.12 0-6.561-1.04-10.111-3.099-5.881-3.412-11.406-9.249-15.555-16.436-4.15-7.187-6.443-14.89-6.457-21.689-.015-7.001 2.382-12.245 6.749-14.766 8.824-5.095 23.053 2.968 31.717 17.975 8.664 15.006 8.533 31.36-.292 36.455-1.807 1.043-3.849 1.561-6.051 1.561zm-19.282-55.561c-1.842 0-3.563.419-5.092 1.302-3.72 2.148-5.762 6.775-5.749 13.03.014 6.455 2.212 13.804 6.189 20.694 3.978 6.889 9.243 12.467 14.827 15.706 5.41 3.139 10.438 3.684 14.158 1.536 7.87-4.544 7.673-19.672-.44-33.723-6.537-11.322-16.25-18.544-23.894-18.544zm79.947 122.128-275.267-158.927c-5.807-3.353-13.062.855-13.036 7.56l1.079 372.437 291.221 164.213 3.997-371.449a15.87 15.87 0 0 0-7.994-13.835z"/><path d="M1691.178 813.344a.998.998 0 0 1-.491-.129l-291.221-164.213a1 1 0 0 1-.509-.868l-1.079-372.437c-.014-3.51 1.792-6.658 4.829-8.42s6.667-1.765 9.707-.01l275.263 158.925a16.903 16.903 0 0 1 8.497 14.707l-3.997 371.456a.999.999 0 0 1-1 .989zm-290.222-165.798 289.241 163.097 3.979-369.758a14.897 14.897 0 0 0-7.49-12.956l-.004-.002L1411.415 269a7.61 7.61 0 0 0-7.704.008 7.61 7.61 0 0 0-3.832 6.683z"/><path d="m1680.4 659.213-270.224-153.738.114 146.004L1680.4 806.37z"/><path d="M1680.4 807.37c-.172 0-.343-.044-.498-.132l-270.11-154.891a.998.998 0 0 1-.502-.867l-.114-146.004a1 1 0 0 1 1.495-.87l270.224 153.739a1 1 0 0 1 .505.869V806.37a.998.998 0 0 1-1 1zm-269.111-156.471L1679.4 804.644V659.795l-268.222-152.6.112 143.704z"/><path d="m1676.691 433.139-261.508-148.941c-2.687-1.536-6.025.41-6.014 3.504l1.053 233.455L1680.4 675.981l3.708-230.004a14.727 14.727 0 0 0-7.417-12.837z" fill="#dbf301"/><path d="M1680.4 676.98a1 1 0 0 1-.497-.132l-270.178-154.824a1 1 0 0 1-.503-.863l-1.053-233.454c-.006-1.816.926-3.444 2.493-4.357s3.443-.92 5.018-.019l261.507 148.94h.002a15.754 15.754 0 0 1 7.92 13.708l-3.708 230.017a1.001 1.001 0 0 1-.999.984zm-269.181-156.405 268.208 153.695 3.681-228.311a13.743 13.743 0 0 0-6.913-11.952l-261.507-148.94a2.989 2.989 0 0 0-3.02.01 2.991 2.991 0 0 0-1.5 2.621l1.05 232.877z"/><path d="m1459.534 311.4 1.023 238.6" fill="#adc4cb"/><path d="M1460.557 551.001a1 1 0 0 1-1-.996l-1.024-238.6a1 1 0 0 1 .996-1.004h.004a1 1 0 0 1 1 .996l1.024 238.6a1 1 0 0 1-.996 1.004z"/><path d="m1538.07 355.99.51 238.609" fill="#adc4cb"/><path d="M1538.58 595.599a1 1 0 0 1-1-.998l-.51-238.608a1 1 0 0 1 .998-1.002c.522.012 1.001.446 1.002.998l.51 238.609a1 1 0 0 1-.998 1.002h-.002z"/><path d="M1615.834 400.002v239.571" fill="#adc4cb"/><path d="M1615.834 640.573a1 1 0 0 1-1-1V400.002a1 1 0 0 1 2 0v239.571a1 1 0 0 1-1 1z"/><path d="m1772.623 597.834 123.174-71.778a19.963 19.963 0 0 0 9.912-17.249V320.012c0-6.602-7.13-10.742-12.864-7.469l-128.331 73.26a17.475 17.475 0 0 0-8.811 15.258l.884 187.607c.039 8.207 8.944 13.297 16.035 9.165z" fill="#fff"/><path d="M1767.254 600.303c-1.987 0-3.974-.519-5.789-1.556-3.66-2.092-5.857-5.857-5.877-10.073l-.884-187.607a18.502 18.502 0 0 1 9.315-16.131l128.331-73.26c3.006-1.716 6.587-1.703 9.58.035s4.78 4.841 4.78 8.302v188.795c0 7.431-3.989 14.371-10.409 18.113l-123.174 71.778-.503-.864.503.864a11.645 11.645 0 0 1-5.873 1.605zm129.856-287.902a7.593 7.593 0 0 0-3.769 1.011l-128.331 73.26a16.499 16.499 0 0 0-8.307 14.385l.884 187.607c.017 3.493 1.837 6.613 4.869 8.346s6.644 1.718 9.663-.041l123.174-71.778a19.028 19.028 0 0 0 9.416-16.385V320.011a7.524 7.524 0 0 0-3.784-6.572 7.578 7.578 0 0 0-3.815-1.039z"/><path d="M1739.454 334.186c38.764-22.254 143.644-82.462 178.966-102.702" fill="#fff"/><path d="M1739.455 335.186a1 1 0 0 1-.499-1.867c32.826-18.846 142.746-81.948 178.967-102.702a1 1 0 0 1 .994 1.736c-36.219 20.754-146.139 83.856-178.965 102.701a.997.997 0 0 1-.497.133z"/><path d="m1680.4 675.98-708.187 402.143c-115.691 66.78-258.242 66.68-373.839-.264L1 733.664l.605 132.899 597.254 344.539c117.46 67.76 262.16 67.652 379.519-.282L1680.4 806.369v-130.39z" fill="#fff"/><path d="M788.377 1262.847c-66.618 0-132.311-17.589-190.018-50.878L1.106 867.43a1 1 0 0 1-.5-.862L0 733.668a.998.998 0 0 1 1.5-.871l597.373 344.194c114.943 66.565 257.806 66.667 372.84.265l708.194-402.146a1.002 1.002 0 0 1 1.494.869v130.39c0 .357-.191.688-.501.867l-702.022 404.451c-57.733 33.419-123.51 51.11-190.22 51.16h-.28zM2.603 865.984l596.756 344.252c116.79 67.373 261.829 67.265 378.518-.281L1679.4 805.791V677.697l-706.693 401.294c-56.834 32.806-121.559 50.145-187.186 50.145h-.263c-65.718-.046-130.515-17.479-187.385-50.413L2.008 735.399z"/><path d="M1424.145 529.135 803.559 886.626a28.773 28.773 0 0 1-28.605.069L252.455 589.058 1 733.664l616.564 356.355s67.007 36.904 154.666 39.666c107.549 3.389 183.051-40.577 183.051-40.577L1680.4 675.98z" fill="#fff"/><path d="M783.922 1130.87c-3.87 0-7.768-.06-11.724-.185-86.894-2.738-154.445-39.42-155.117-39.79L.5 734.53a1.002 1.002 0 0 1 .001-1.733l251.455-144.606a1 1 0 0 1 .994-.002l522.498 297.636c8.527 4.858 19.107 4.833 27.611-.067l620.586-357.49a1 1 0 0 1 .997-.001l256.255 146.845a1 1 0 0 1-.002 1.737l-725.119 413.128c-.722.42-71.438 40.889-171.854 40.893zM3.002 733.666l615.062 355.487c.65.357 67.803 36.811 154.197 39.533 106.004 3.336 181.764-40.004 182.516-40.442l723.606-412.266-254.238-145.69-620.088 357.204c-9.116 5.251-20.458 5.279-29.599.072l-522-297.354z"/><path d="m1597.42 723.03-255.496-146.41" fill="#fff"/><path d="M1597.419 724.03a.992.992 0 0 1-.496-.132l-255.496-146.411a.999.999 0 1 1 .994-1.735l255.497 146.411a1 1 0 0 1-.499 1.868z"/><path d="m1476.18 792.353-255.263-146.277" fill="#fff"/><path d="M1476.179 793.353a.992.992 0 0 1-.496-.132L1220.42 646.944a1 1 0 1 1 .995-1.736l255.262 146.277a1.001 1.001 0 0 1-.498 1.868z"/><path d="M1338.869 870.506 1084.54 724.765" fill="#fff"/><path d="M1338.868 871.506a.994.994 0 0 1-.496-.132l-254.328-145.742a1 1 0 1 1 .995-1.736l254.328 145.742a1 1 0 0 1-.499 1.868z"/><path d="M1217.37 939.786 963.659 794.399" fill="#fff"/><path d="M1217.369 940.786a.992.992 0 0 1-.496-.132l-253.71-145.387a1 1 0 1 1 .995-1.736l253.71 145.387a1 1 0 0 1-.499 1.868z"/><path d="M1095.913 1008.985 841.359 863.114" fill="#fff"/><path d="M1095.912 1009.985a.992.992 0 0 1-.496-.132L840.862 863.982a1 1 0 1 1 .995-1.736l254.554 145.871a1 1 0 0 1-.499 1.868z"/><path d="m876.684 1118.514-79.861-229.079" fill="#fff"/><path d="M876.684 1119.515a1 1 0 0 1-.944-.671l-79.862-229.08a1 1 0 1 1 1.888-.658l79.862 229.08a1 1 0 0 1-.944 1.329z"/><path d="m666.886 1108.796 108.38-225.589" fill="#fff"/><path d="M666.885 1109.795a1 1 0 0 1-.9-1.433l108.38-225.588a1 1 0 0 1 1.802.866l-108.38 225.588a1 1 0 0 1-.902.567z"/><path d="m356.618 939.201 253.983-145.544" fill="#fff"/><path d="M356.619 940.201a1 1 0 0 1-.499-1.868L610.102 792.79a1 1 0 0 1 .995 1.736L357.115 940.069a.994.994 0 0 1-.496.132z"/><path d="m477.207 1008.897 254.4-145.783" fill="#fff"/><path d="M477.208 1009.897a1 1 0 0 1-.499-1.868L731.11 862.246a1 1 0 1 1 .995 1.736l-254.401 145.783a.994.994 0 0 1-.496.132z"/><path d="m235.733 869.333 253.614-145.332" fill="#fff"/><path d="M235.734 870.333a1 1 0 0 1-.499-1.868l253.614-145.332a1 1 0 1 1 .995 1.736L236.23 870.201a.994.994 0 0 1-.496.132z"/><path d="m92.325 786.447 252.568-144.733" fill="#fff"/><path d="M92.326 787.447a1 1 0 0 1-.499-1.868l252.568-144.733a1 1 0 0 1 .995 1.736L92.822 787.315a.994.994 0 0 1-.496.132z"/></svg></g><g transform="translate(441.59999999999997 1269.6) rotate(0.0 211.20000000000002 141.0) scale(1.3873379140008146 1.3852456600548202)"><svg width="304.468" height="203.574" viewBox="0 0 304.468 203.574"><path d="m1.118 88.07 138.864 76.575V148.83l163.485-59.845s.003 23.671 0 25.791c-.003 2.101-1.041 4.2-3.116 5.407L164.42 199.275a24.317 24.317 0 0 1-24.438.013L4.457 120.62a6.683 6.683 0 0 1-3.322-5.057c-.293-2.532-.017-27.494-.017-27.494z" fill="#fff"/><path d="M152.19 203.566a25.308 25.308 0 0 1-12.71-3.414L3.955 121.485a7.682 7.682 0 0 1-3.813-5.807c-.297-2.566-.034-26.598-.023-27.62a1 1 0 0 1 1.483-.865l137.38 75.757v-14.122a1 1 0 0 1 .656-.939l163.485-59.845a1.002 1.002 0 0 1 1.344.939s.003 23.672 0 25.792a7.198 7.198 0 0 1-3.613 6.27l-135.931 79.092a25.305 25.305 0 0 1-12.733 3.427zM2.1 89.753c-.091 8.945-.184 23.862.028 25.695a5.701 5.701 0 0 0 2.831 4.307l135.524 78.667a23.362 23.362 0 0 0 23.433-.013l135.931-79.092a5.216 5.216 0 0 0 2.619-4.544c.003-1.804 0-19.205 0-24.359l-161.485 59.113v15.117a1 1 0 0 1-1.482.876z"/><path d="m164.42 172.279 135.931-79.092c4.168-2.425 4.151-8.452-.03-10.854L164.571 4.347a25.184 25.184 0 0 0-25.09 0L4.483 81.911c-4.514 2.593-4.528 9.1-.026 11.713l135.524 78.667a24.317 24.317 0 0 0 24.439-.013z" fill="#fff"/><path d="M152.19 176.57c-4.395 0-8.79-1.138-12.71-3.414L3.955 94.489a7.685 7.685 0 0 1-3.866-6.731 7.685 7.685 0 0 1 3.896-6.714L138.982 3.48c8.045-4.622 18.041-4.622 26.087 0l135.75 77.987c2.277 1.308 3.641 3.657 3.648 6.283s-1.344 4.982-3.613 6.302l-135.931 79.092-.503-.864.503.864a25.305 25.305 0 0 1-12.733 3.427zm-.164-174.558a24.175 24.175 0 0 0-12.047 3.202L4.981 82.778a5.706 5.706 0 0 0-2.892 4.984 5.706 5.706 0 0 0 2.87 4.997l135.524 78.667a23.367 23.367 0 0 0 23.434-.012l135.931-79.092c1.645-.957 2.624-2.665 2.619-4.568s-.994-3.606-2.644-4.554L164.073 5.214a24.185 24.185 0 0 0-12.047-3.202z"/><path d="m282.488 113.745 5.886 3.396-.037 17.184-5.829 3.157-5.827-3.338-.072-17.123z" fill="#fff"/><path d="M282.508 138.482a1 1 0 0 1-.497-.132l-5.827-3.337a1 1 0 0 1-.503-.863l-.072-17.124a1.001 1.001 0 0 1 .513-.878l5.879-3.276a1 1 0 0 1 .987.007l5.886 3.396a1 1 0 0 1 .5.868l-.038 17.184a.998.998 0 0 1-.524.877l-5.829 3.157a.996.996 0 0 1-.476.121zm-4.829-4.918 4.843 2.774 4.817-2.609.035-16.011-4.893-2.823-4.868 2.713.067 15.957z"/><path d="m250.537 132.473 5.886 3.396-.038 17.184-5.829 3.156-5.826-3.337-.072-17.124z" fill="#fff"/><path d="M250.556 157.209a1 1 0 0 1-.497-.132l-5.826-3.337a1 1 0 0 1-.503-.863l-.072-17.124a1.001 1.001 0 0 1 .513-.878l5.879-3.275a1 1 0 0 1 .987.007l5.886 3.396a1 1 0 0 1 .5.868l-.038 17.184a.997.997 0 0 1-.524.877l-5.829 3.156a.994.994 0 0 1-.476.121zm-4.829-4.918 4.843 2.774 4.817-2.608.035-16.011-4.893-2.823-4.868 2.712.067 15.956z"/><path d="m217.767 150.396 5.886 3.396-.038 17.184-5.829 3.157-5.826-3.337-.072-17.124z" fill="#fff"/><path d="M217.786 175.133a1 1 0 0 1-.497-.132l-5.827-3.338a1 1 0 0 1-.503-.863l-.072-17.124a1.001 1.001 0 0 1 .513-.878l5.879-3.276a1 1 0 0 1 .987.007l5.886 3.396a1 1 0 0 1 .5.869l-.039 17.184a.998.998 0 0 1-.524.877l-5.828 3.157a.996.996 0 0 1-.476.121zm-4.829-4.919 4.843 2.774 4.816-2.609.036-16.011-4.893-2.824-4.868 2.713.067 15.957z"/><path d="m185.167 169.083 5.886 3.396-.039 17.184-5.828 3.157-5.826-3.338-.072-17.124z" fill="#fff"/><path d="M185.186 193.819a1 1 0 0 1-.497-.132l-5.827-3.337a1 1 0 0 1-.503-.863l-.072-17.124a1.001 1.001 0 0 1 .513-.878l5.879-3.275a1 1 0 0 1 .987.007l5.886 3.396a1 1 0 0 1 .5.869l-.038 17.184a.998.998 0 0 1-.524.877l-5.828 3.156a.996.996 0 0 1-.476.121zm-4.829-4.918 4.843 2.774 4.816-2.608.036-16.011-4.893-2.823-4.868 2.712.067 15.956z"/><path d="m13.858 108.623 5.879 3.363-.071 17.583-5.826 3.426-5.829-3.241-.038-17.644z" fill="#fff"/><path d="M13.84 133.995a1 1 0 0 1-.486-.126l-5.829-3.241a1.002 1.002 0 0 1-.514-.872l-.039-17.644c0-.354.186-.682.49-.862l5.886-3.487a.997.997 0 0 1 1.006-.008l5.879 3.363a.998.998 0 0 1 .503.872l-.072 17.583a1 1 0 0 1-.493.858l-5.825 3.426a1 1 0 0 1-.507.138zm-4.83-4.83 4.816 2.678 4.842-2.848.067-16.431-4.868-2.785-4.894 2.899.036 16.485z"/><path d="m39.924 131.339 5.886-3.487 5.879 3.364-.072 17.581-5.826 3.427-5.829-3.242z" fill="#fff"/><path d="M45.791 153.224a1 1 0 0 1-.486-.126l-5.829-3.242a1.002 1.002 0 0 1-.514-.872l-.038-17.644c0-.354.186-.682.49-.862l5.886-3.487a.997.997 0 0 1 1.006-.008l5.879 3.364a.998.998 0 0 1 .503.872l-.072 17.582a1 1 0 0 1-.493.858l-5.826 3.427a1 1 0 0 1-.507.138zm-4.83-4.831 4.816 2.679 4.842-2.848.067-16.43-4.868-2.785-4.893 2.899z"/><path d="m84.462 150.079 5.879 3.363-.072 17.582-5.825 3.426-5.829-3.24-.039-17.644z" fill="#fff"/><path d="M84.444 175.45a1 1 0 0 1-.486-.126l-5.829-3.241a1 1 0 0 1-.514-.872l-.039-17.644c0-.354.186-.682.49-.862l5.886-3.487a1 1 0 0 1 1.006-.008l5.879 3.363a.998.998 0 0 1 .503.872l-.072 17.583a1 1 0 0 1-.493.858l-5.826 3.426a1 1 0 0 1-.507.138zm-4.83-4.83 4.816 2.678 4.842-2.847.067-16.431-4.868-2.785-4.894 2.899.036 16.485z"/><path d="m127.13 175.117 5.878 3.363-.071 17.582-5.826 3.427-5.829-3.241-.039-17.644z" fill="#fff"/><path d="M127.111 200.488a1 1 0 0 1-.486-.126l-5.829-3.241a1 1 0 0 1-.514-.872l-.038-17.644c0-.354.186-.682.49-.862l5.887-3.487a.997.997 0 0 1 1.006-.008l5.878 3.363a.998.998 0 0 1 .503.872l-.071 17.582a1 1 0 0 1-.493.858l-5.826 3.427a1 1 0 0 1-.507.138zm-4.83-4.83 4.816 2.678 4.843-2.848.066-16.43-4.867-2.785-4.894 2.899.036 16.485z"/></svg></g><g transform="translate(134.4 1224.0) rotate(0.0 310.2 289.19999999999993) scale(1.3892092210889304 1.3878058319516855)"><svg width="446.585" height="416.773" viewBox="0 0 446.585 416.773"><path d="M323.825 200.059h.033a8.944 8.944 0 0 1 8.913 8.978l-.726 197.825a8.946 8.946 0 0 1-8.944 8.912h-.034c-4.94-.017-8.929-4.037-8.912-8.978l.726-197.825a8.945 8.945 0 0 1 8.944-8.912z" fill="#adc4cb"/><path d="M323.101 416.773c-5.521-.02-9.965-4.497-9.946-9.982l.726-197.825c.021-5.463 4.482-9.908 9.944-9.908h.033c2.66.009 5.154 1.053 7.026 2.938s2.897 4.387 2.887 7.044l-.726 197.824c-.02 5.463-4.481 9.908-9.944 9.908zm.724-216.715v1c-4.364 0-7.928 3.551-7.944 7.916l-.726 197.824c-.015 4.382 3.535 7.959 7.916 7.975 4.395 0 7.958-3.551 7.975-7.916l.726-197.824c.008-2.123-.811-4.121-2.306-5.627s-3.487-2.34-5.61-2.347l-.03-1z"/><path d="M93.351 83.898a8.944 8.944 0 0 1 8.945 8.945v181.481a8.944 8.944 0 0 1-8.945 8.945 8.945 8.945 0 0 1-8.945-8.945V92.843a8.945 8.945 0 0 1 8.945-8.945z" fill="#adc4cb"/><path d="M93.351 284.268c-5.484 0-9.945-4.461-9.945-9.945V92.843c0-5.484 4.461-9.945 9.945-9.945s9.945 4.461 9.945 9.945v181.481c0 5.484-4.461 9.945-9.945 9.945zm0-199.371c-4.381 0-7.945 3.564-7.945 7.945v181.481c0 4.381 3.564 7.945 7.945 7.945s7.945-3.564 7.945-7.945V92.843c0-4.381-3.564-7.945-7.945-7.945z"/><path d="M14.517 151.928 432.068 408.9l13.517-8.408V249.795L14.517 1 1 9.409z" fill="#fff"/><path d="M432.068 409.9c-.182 0-.363-.05-.524-.148L13.993 152.78a.998.998 0 0 1-.471-.757L.004 9.503a1 1 0 0 1 .467-.944L13.988.151a.998.998 0 0 1 1.028-.017l431.068 248.795a1 1 0 0 1 .5.866v150.697a.999.999 0 0 1-.472.849l-13.517 8.408a.996.996 0 0 1-.528.151zM15.465 151.337l416.6 256.387 12.52-7.788V250.372L14.536 2.166 2.054 9.931l13.411 141.407z"/><path d="M1 160.337 432.068 408.9V258.203L1 9.409z" fill="#87c159"/><path d="M432.068 409.9c-.173 0-.345-.045-.5-.134L.501 161.203a1 1 0 0 1-.501-.866V9.409a1 1 0 0 1 1.5-.866l431.068 248.795c.309.179.5.509.5.866v150.697a1 1 0 0 1-1 1zM2 159.759l429.068 247.41V258.78L2 11.14z"/><path d="m361.583 368.257 33.115 19.095-67.907-189.91-33.224-19.176z" fill="#fff"/><path d="M394.698 388.352a.994.994 0 0 1-.499-.134l-33.115-19.095a1 1 0 0 1-.442-.529l-68.016-189.991a1.001 1.001 0 0 1 1.442-1.203l33.224 19.175c.205.119.362.306.442.53l67.907 189.91a1 1 0 0 1-.942 1.336zm-32.297-20.778 30.44 17.552-66.867-187.002-30.546-17.63 66.974 187.08z"/><path d="m233.97 294.672 33.165 19.124-69.176-190.72-32.701-18.864z" fill="#fff"/><path d="M267.135 314.796a.994.994 0 0 1-.499-.134l-33.165-19.124a.998.998 0 0 1-.441-.527L164.318 104.55a.999.999 0 0 1 1.441-1.205l32.701 18.864a1 1 0 0 1 .44.525l69.176 190.72a1 1 0 0 1-.941 1.341zm-32.349-20.807 30.474 17.572-68.117-187.802-30.017-17.315z"/><path d="m105.461 220.557 33.165 19.124L69.45 48.96 36.749 30.096z" fill="#fff"/><path d="M138.626 240.681a.994.994 0 0 1-.499-.134l-33.165-19.124a.998.998 0 0 1-.441-.527L35.809 30.436a1 1 0 0 1 1.441-1.205l32.701 18.864a1 1 0 0 1 .44.525l69.176 190.721a1 1 0 0 1-.941 1.341zm-32.348-20.807 30.474 17.572L68.634 49.644 38.617 32.329l67.66 187.545z"/></svg></g><g transform="translate(1669.2 1273.2) rotate(0.0 211.19999999999993 141.0) scale(1.387337914000814 1.3852456600548202)"><svg width="304.468" height="203.574" viewBox="0 0 304.468 203.574"><path d="m1.118 88.07 138.864 76.575V148.83l163.485-59.845s.003 23.671 0 25.791c-.003 2.101-1.041 4.2-3.116 5.407L164.42 199.275a24.317 24.317 0 0 1-24.438.013L4.457 120.62a6.683 6.683 0 0 1-3.322-5.057c-.293-2.532-.017-27.494-.017-27.494z" fill="#fff"/><path d="M152.19 203.566c-4.395 0-8.79-1.138-12.711-3.414L3.955 121.485a7.682 7.682 0 0 1-3.813-5.807c-.296-2.566-.034-26.598-.023-27.62a1 1 0 0 1 1.483-.865l137.381 75.757v-14.122a1 1 0 0 1 .656-.939l163.485-59.845a1.002 1.002 0 0 1 1.344.939s.003 23.673 0 25.793a7.2 7.2 0 0 1-3.613 6.27l-135.931 79.092a25.302 25.302 0 0 1-12.732 3.427zM2.1 89.753c-.091 8.945-.184 23.862.028 25.695a5.701 5.701 0 0 0 2.831 4.307l135.525 78.667a23.37 23.37 0 0 0 23.433-.012l135.931-79.092a5.222 5.222 0 0 0 2.619-4.545c.003-1.803 0-19.205 0-24.359l-161.485 59.113v15.117a1 1 0 0 1-1.482.876z"/><path d="m164.42 172.279 135.931-79.092c4.168-2.425 4.151-8.452-.03-10.854L164.571 4.347a25.184 25.184 0 0 0-25.09 0L4.483 81.911c-4.514 2.593-4.528 9.1-.026 11.713l135.524 78.667a24.317 24.317 0 0 0 24.439-.013z" fill="#fff"/><path d="M152.189 176.57a25.308 25.308 0 0 1-12.71-3.414L3.955 94.489a7.685 7.685 0 0 1-3.866-6.731 7.683 7.683 0 0 1 3.896-6.714L138.982 3.48c8.045-4.622 18.041-4.623 26.087 0l135.75 77.986c2.277 1.308 3.641 3.657 3.648 6.283s-1.344 4.982-3.613 6.303l-135.931 79.092a25.316 25.316 0 0 1-12.733 3.427zm-.163-174.558a24.175 24.175 0 0 0-12.047 3.202L4.981 82.778c-1.806 1.038-2.887 2.901-2.892 4.984s1.068 3.951 2.87 4.997l135.524 78.667a23.367 23.367 0 0 0 23.434-.012l.503.864-.503-.864 135.931-79.092a5.217 5.217 0 0 0 2.619-4.568 5.215 5.215 0 0 0-2.644-4.554L164.073 5.214a24.185 24.185 0 0 0-12.047-3.202z"/><path d="m282.488 113.745 5.886 3.396-.037 17.184-5.829 3.157-5.827-3.338-.072-17.123z" fill="#fff"/><path d="M282.508 138.482a1 1 0 0 1-.497-.132l-5.827-3.337a1 1 0 0 1-.503-.863l-.072-17.124a1.001 1.001 0 0 1 .513-.878l5.879-3.276a1 1 0 0 1 .987.007l5.886 3.396a1 1 0 0 1 .5.868l-.037 17.184a.998.998 0 0 1-.524.877l-5.829 3.157a.996.996 0 0 1-.476.121zm-4.829-4.918 4.843 2.774 4.817-2.609.035-16.011-4.893-2.824-4.868 2.713.067 15.957z"/><path d="m250.537 132.473 5.886 3.396-.038 17.184-5.829 3.156-5.826-3.337-.072-17.124z" fill="#fff"/><path d="M250.556 157.209a1 1 0 0 1-.497-.132l-5.827-3.338a1 1 0 0 1-.503-.863l-.072-17.124a1.001 1.001 0 0 1 .513-.878l5.879-3.275a.998.998 0 0 1 .987.007l5.886 3.396a1 1 0 0 1 .5.868l-.038 17.184a.997.997 0 0 1-.524.877l-5.829 3.157a.996.996 0 0 1-.476.121zm-4.829-4.919 4.843 2.774 4.817-2.608.035-16.011-4.893-2.824-4.868 2.712.067 15.956z"/><path d="m217.767 150.396 5.886 3.396-.038 17.184-5.829 3.157-5.826-3.337-.072-17.124z" fill="#fff"/><path d="M217.786 175.133a1 1 0 0 1-.497-.132l-5.826-3.337a1 1 0 0 1-.503-.863l-.072-17.124a1.001 1.001 0 0 1 .513-.878l5.879-3.276a1 1 0 0 1 .987.007l5.886 3.396a1 1 0 0 1 .5.869l-.038 17.184a.998.998 0 0 1-.524.877l-5.828 3.157a.996.996 0 0 1-.476.121zm-4.829-4.918 4.843 2.774 4.816-2.609.036-16.011-4.893-2.823-4.868 2.713.067 15.957z"/><path d="m185.167 169.083 5.886 3.396-.039 17.184-5.828 3.157-5.826-3.338-.072-17.124z" fill="#fff"/><path d="M185.186 193.82a1 1 0 0 1-.497-.132l-5.826-3.338a1 1 0 0 1-.503-.863l-.072-17.124a1.001 1.001 0 0 1 .513-.878l5.879-3.275a1 1 0 0 1 .987.007l5.886 3.396a1 1 0 0 1 .5.869l-.038 17.184a.998.998 0 0 1-.524.877l-5.828 3.157a.996.996 0 0 1-.476.121zm-4.829-4.919 4.843 2.774 4.816-2.608.036-16.011-4.893-2.824-4.868 2.712.067 15.956z"/><path d="m13.858 108.623 5.879 3.363-.071 17.583-5.826 3.426-5.829-3.241-.038-17.644z" fill="#fff"/><path d="M13.84 133.995a1 1 0 0 1-.486-.126l-5.829-3.241a1 1 0 0 1-.514-.872l-.038-17.644c0-.354.186-.682.49-.862l5.886-3.487a.995.995 0 0 1 1.006-.008l5.879 3.363a.998.998 0 0 1 .503.872l-.072 17.583a1 1 0 0 1-.493.858l-5.826 3.426a1 1 0 0 1-.507.138zm-4.83-4.83 4.816 2.678 4.842-2.848.067-16.431-4.868-2.784-4.894 2.899.036 16.486z"/><path d="m39.924 131.339 5.886-3.487 5.879 3.364-.072 17.581-5.826 3.427-5.829-3.242z" fill="#fff"/><path d="M45.791 153.224a1 1 0 0 1-.486-.126l-5.829-3.242a1.002 1.002 0 0 1-.514-.872l-.038-17.644c0-.354.186-.682.49-.862l5.886-3.487a.995.995 0 0 1 1.006-.008l5.879 3.364a.998.998 0 0 1 .503.872l-.072 17.582a1 1 0 0 1-.493.858l-5.826 3.427a1 1 0 0 1-.507.138zm-4.83-4.831 4.816 2.679 4.842-2.848.067-16.43-4.868-2.786-4.893 2.899.036 16.485z"/><path d="m84.462 150.079 5.879 3.363-.072 17.582-5.825 3.426-5.829-3.24-.039-17.644z" fill="#fff"/><path d="M84.444 175.451a1 1 0 0 1-.486-.126l-5.829-3.241a1.002 1.002 0 0 1-.514-.872l-.039-17.644c0-.354.186-.682.49-.862l5.886-3.487a.997.997 0 0 1 1.006-.008l5.879 3.363a.998.998 0 0 1 .503.872l-.072 17.583a1 1 0 0 1-.493.858l-5.825 3.426a1 1 0 0 1-.507.138zm-4.83-4.83 4.816 2.678 4.842-2.848.067-16.431-4.868-2.785-4.894 2.899.036 16.485z"/><path d="m127.13 175.117 5.878 3.363-.071 17.582-5.826 3.427-5.829-3.241-.039-17.644z" fill="#fff"/><path d="M127.111 200.489a1 1 0 0 1-.486-.126l-5.829-3.241a1 1 0 0 1-.514-.872l-.039-17.644c0-.354.186-.682.49-.862l5.887-3.487a1 1 0 0 1 1.006-.008l5.878 3.363a.998.998 0 0 1 .503.872l-.071 17.582a1 1 0 0 1-.493.858l-5.826 3.427a1 1 0 0 1-.507.138zm-4.83-4.83 4.816 2.678 4.843-2.848.066-16.43-4.867-2.784-4.895 2.899.036 16.486zM88.644 75.073a1 1 0 0 1-.489-1.873l63.854-35.674a1 1 0 1 1 .976 1.746L89.131 74.946a.998.998 0 0 1-.487.127z"/><path d="M131.52 91.325a1 1 0 0 1-.529-1.85l8.876-5.509V69.497l-26.938-17.248a1 1 0 1 1 1.079-1.684l27.398 17.542a1 1 0 0 1 .461.842v15.572c0 .346-.179.667-.473.85l-9.348 5.802a.992.992 0 0 1-.526.15z"/><path d="M115.004 47.314c0 3.084-4.153 5.584-9.277 5.584-5.123 0-9.277-2.5-9.277-5.584s4.153-5.584 9.277-5.584c5.123 0 9.277 2.5 9.277 5.584z" fill="#dbf301"/><path d="M105.727 53.898c-5.763 0-10.277-2.892-10.277-6.584s4.514-6.584 10.277-6.584 10.276 2.892 10.276 6.584-4.514 6.584-10.276 6.584zm0-11.169c-4.486 0-8.277 2.1-8.277 4.584s3.79 4.584 8.277 4.584 8.276-2.1 8.276-4.584-3.79-4.584-8.276-4.584zm69.792 51.675a.992.992 0 0 1-.526-.15l-9.349-5.803a.997.997 0 0 1-.47-.783l-1.166-17.469a1 1 0 0 1 .517-.943L193.09 53.61a1 1 0 0 1 .961 1.753l-28.005 15.339 1.09 16.32 8.912 5.532a1 1 0 0 1-.529 1.85z"/><ellipse cx="201.312" cy="50.393" fill="#dbf301" rx="9.277" ry="5.584"/><path d="M201.312 56.977c-5.762 0-10.276-2.892-10.276-6.584s4.514-6.584 10.276-6.584 10.277 2.892 10.277 6.584-4.514 6.584-10.277 6.584zm0-11.168c-4.486 0-8.276 2.1-8.276 4.584s3.79 4.584 8.276 4.584 8.277-2.099 8.277-4.584-3.79-4.584-8.277-4.584z"/><path d="M167.938 34.712c0 3.084-4.153 5.584-9.277 5.584-5.123 0-9.277-2.5-9.277-5.584s4.153-5.584 9.277-5.584 9.277 2.5 9.277 5.584z" fill="#dbf301"/><path d="M158.661 41.296c-5.763 0-10.277-2.892-10.277-6.584s4.514-6.584 10.277-6.584 10.277 2.892 10.277 6.584-4.514 6.584-10.277 6.584zm0-11.169c-4.486 0-8.277 2.1-8.277 4.584s3.79 4.584 8.277 4.584 8.277-2.1 8.277-4.584-3.79-4.584-8.277-4.584z"/><path d="m4.483 81.911 55.152-31.688 36.011 20.089-10.639 6.113a1.091 1.091 0 0 0-.004 1.89l21.872 12.695a3.925 3.925 0 0 0 3.944-.002l10.733-6.245 34.417 19.2 41.349-22.241 2.011 1.167a3.925 3.925 0 0 0 3.944-.002l23.261-13.483 7.882 4.571a3.925 3.925 0 0 0 3.944-.002l21.932-14.516 40.029 22.875c4.181 2.402 4.198 8.429.03 10.854L164.42 172.278a24.321 24.321 0 0 1-24.439.013L4.457 93.624c-4.502-2.613-4.488-9.12.026-11.713z" fill="#dbf301"/><path d="M152.189 176.57a25.308 25.308 0 0 1-12.71-3.414L3.955 94.489a7.685 7.685 0 0 1-3.866-6.731 7.685 7.685 0 0 1 3.896-6.714l55.152-31.688a1 1 0 0 1 .985-.006l36.011 20.088a1 1 0 0 1 .011 1.741l-10.639 6.112-.503 1.023.502-.865 21.872 12.695a2.934 2.934 0 0 0 2.939-.001l10.733-6.245a.997.997 0 0 1 .99-.009l33.939 18.933 40.866-21.982a.998.998 0 0 1 .976.016l2.011 1.167a2.934 2.934 0 0 0 2.939-.001l23.262-13.483a.999.999 0 0 1 1.003 0l7.883 4.571a2.93 2.93 0 0 0 2.939-.001l21.883-14.485c.315-.208.72-.221 1.048-.034l40.029 22.875a7.196 7.196 0 0 1 3.65 6.284 7.196 7.196 0 0 1-3.613 6.302l-135.931 79.092a25.316 25.316 0 0 1-12.733 3.427zM59.642 51.372 4.981 82.778c-1.806 1.038-2.887 2.901-2.892 4.984s1.068 3.952 2.87 4.998l135.524 78.667a23.367 23.367 0 0 0 23.434-.012l135.931-79.092c1.645-.958 2.624-2.665 2.619-4.568s-.994-3.606-2.644-4.554l-39.492-22.568-21.418 14.176c-1.575.919-3.472.919-4.998.033l-7.381-4.28-22.76 13.192a4.935 4.935 0 0 1-4.948 0l-1.527-.886-40.857 21.977a1.003 1.003 0 0 1-.961-.007l-33.92-18.922-10.24 5.958a4.932 4.932 0 0 1-4.949.002L84.5 79.181c-.654-.38-1.043-1.058-1.041-1.813s.394-1.432 1.049-1.809l9.108-5.233-33.974-18.953zM4.483 81.911h.01z"/></svg></g><g transform="translate(1064.3999999999999 1526.3999999999999) rotate(0.0 211.20000000000005 141.0) scale(1.3873379140008149 1.3852456600548202)"><svg width="304.468" height="203.574" viewBox="0 0 304.468 203.574"><path d="m1.118 88.07 138.864 76.575V148.83l163.485-59.845s.003 23.671 0 25.791c-.003 2.101-1.041 4.2-3.116 5.407L164.42 199.275a24.317 24.317 0 0 1-24.438.013L4.457 120.62a6.683 6.683 0 0 1-3.322-5.057c-.293-2.532-.017-27.494-.017-27.494z" fill="#fff"/><path d="M152.19 203.566a25.308 25.308 0 0 1-12.71-3.414L3.955 121.485a7.682 7.682 0 0 1-3.813-5.807c-.297-2.566-.034-26.598-.023-27.62a1 1 0 0 1 1.483-.865l137.38 75.757v-14.122a1 1 0 0 1 .656-.939l163.485-59.845a1.002 1.002 0 0 1 1.344.939s.003 23.672 0 25.792a7.198 7.198 0 0 1-3.613 6.27l-135.931 79.092a25.305 25.305 0 0 1-12.733 3.427zM2.1 89.753c-.091 8.945-.184 23.862.028 25.695a5.701 5.701 0 0 0 2.831 4.307l135.524 78.667a23.362 23.362 0 0 0 23.433-.013l135.931-79.092a5.216 5.216 0 0 0 2.619-4.544c.003-1.804 0-19.205 0-24.359l-161.485 59.113v15.117a1 1 0 0 1-1.482.876z"/><path d="m164.42 172.279 135.931-79.092c4.168-2.425 4.151-8.452-.03-10.854L164.571 4.347a25.184 25.184 0 0 0-25.09 0L4.483 81.911c-4.514 2.593-4.528 9.1-.026 11.713l135.524 78.667a24.317 24.317 0 0 0 24.439-.013z" fill="#fff"/><path d="M152.19 176.57c-4.395 0-8.79-1.138-12.71-3.414L3.955 94.489a7.685 7.685 0 0 1-3.866-6.731 7.685 7.685 0 0 1 3.896-6.714L138.982 3.48c8.045-4.622 18.041-4.622 26.087 0l135.75 77.987c2.277 1.308 3.641 3.657 3.648 6.283s-1.344 4.982-3.613 6.302l-135.931 79.092-.503-.864.503.864a25.305 25.305 0 0 1-12.733 3.427zm-.164-174.558a24.175 24.175 0 0 0-12.047 3.202L4.981 82.778a5.706 5.706 0 0 0-2.892 4.984 5.706 5.706 0 0 0 2.87 4.997l135.524 78.667a23.367 23.367 0 0 0 23.434-.012l135.931-79.092c1.645-.957 2.624-2.665 2.619-4.568s-.994-3.606-2.644-4.554L164.073 5.214a24.185 24.185 0 0 0-12.047-3.202z"/><path d="m282.488 113.745 5.886 3.396-.037 17.184-5.829 3.157-5.827-3.338-.072-17.123z" fill="#fff"/><path d="M282.508 138.482a1 1 0 0 1-.497-.132l-5.827-3.337a1 1 0 0 1-.503-.863l-.072-17.124a1.001 1.001 0 0 1 .513-.878l5.879-3.276a1 1 0 0 1 .987.007l5.886 3.396a1 1 0 0 1 .5.868l-.038 17.184a.998.998 0 0 1-.524.877l-5.829 3.157a.996.996 0 0 1-.476.121zm-4.829-4.918 4.843 2.774 4.817-2.609.035-16.011-4.893-2.823-4.868 2.713.067 15.957z"/><path d="m250.537 132.473 5.886 3.396-.038 17.184-5.829 3.156-5.826-3.337-.072-17.124z" fill="#fff"/><path d="M250.556 157.209a1 1 0 0 1-.497-.132l-5.826-3.337a1 1 0 0 1-.503-.863l-.072-17.124a1.001 1.001 0 0 1 .513-.878l5.879-3.275a1 1 0 0 1 .987.007l5.886 3.396a1 1 0 0 1 .5.868l-.038 17.184a.997.997 0 0 1-.524.877l-5.829 3.156a.994.994 0 0 1-.476.121zm-4.829-4.918 4.843 2.774 4.817-2.608.035-16.011-4.893-2.823-4.868 2.712.067 15.956z"/><path d="m217.767 150.396 5.886 3.396-.038 17.184-5.829 3.157-5.826-3.337-.072-17.124z" fill="#fff"/><path d="M217.786 175.133a1 1 0 0 1-.497-.132l-5.827-3.338a1 1 0 0 1-.503-.863l-.072-17.124a1.001 1.001 0 0 1 .513-.878l5.879-3.276a1 1 0 0 1 .987.007l5.886 3.396a1 1 0 0 1 .5.869l-.039 17.184a.998.998 0 0 1-.524.877l-5.828 3.157a.996.996 0 0 1-.476.121zm-4.829-4.919 4.843 2.774 4.816-2.609.036-16.011-4.893-2.824-4.868 2.713.067 15.957z"/><path d="m185.167 169.083 5.886 3.396-.039 17.184-5.828 3.157-5.826-3.338-.072-17.124z" fill="#fff"/><path d="M185.186 193.819a1 1 0 0 1-.497-.132l-5.827-3.337a1 1 0 0 1-.503-.863l-.072-17.124a1.001 1.001 0 0 1 .513-.878l5.879-3.275a1 1 0 0 1 .987.007l5.886 3.396a1 1 0 0 1 .5.869l-.038 17.184a.998.998 0 0 1-.524.877l-5.828 3.156a.996.996 0 0 1-.476.121zm-4.829-4.918 4.843 2.774 4.816-2.608.036-16.011-4.893-2.823-4.868 2.712.067 15.956z"/><path d="m13.858 108.623 5.879 3.363-.071 17.583-5.826 3.426-5.829-3.241-.038-17.644z" fill="#fff"/><path d="M13.84 133.995a1 1 0 0 1-.486-.126l-5.829-3.241a1.002 1.002 0 0 1-.514-.872l-.039-17.644c0-.354.186-.682.49-.862l5.886-3.487a.997.997 0 0 1 1.006-.008l5.879 3.363a.998.998 0 0 1 .503.872l-.072 17.583a1 1 0 0 1-.493.858l-5.825 3.426a1 1 0 0 1-.507.138zm-4.83-4.83 4.816 2.678 4.842-2.848.067-16.431-4.868-2.785-4.894 2.899.036 16.485z"/><path d="m39.924 131.339 5.886-3.487 5.879 3.364-.072 17.581-5.826 3.427-5.829-3.242z" fill="#fff"/><path d="M45.791 153.224a1 1 0 0 1-.486-.126l-5.829-3.242a1.002 1.002 0 0 1-.514-.872l-.038-17.644c0-.354.186-.682.49-.862l5.886-3.487a.997.997 0 0 1 1.006-.008l5.879 3.364a.998.998 0 0 1 .503.872l-.072 17.582a1 1 0 0 1-.493.858l-5.826 3.427a1 1 0 0 1-.507.138zm-4.83-4.831 4.816 2.679 4.842-2.848.067-16.43-4.868-2.785-4.893 2.899z"/><path d="m84.462 150.079 5.879 3.363-.072 17.582-5.825 3.426-5.829-3.24-.039-17.644z" fill="#fff"/><path d="M84.444 175.45a1 1 0 0 1-.486-.126l-5.829-3.241a1 1 0 0 1-.514-.872l-.039-17.644c0-.354.186-.682.49-.862l5.886-3.487a1 1 0 0 1 1.006-.008l5.879 3.363a.998.998 0 0 1 .503.872l-.072 17.583a1 1 0 0 1-.493.858l-5.826 3.426a1 1 0 0 1-.507.138zm-4.83-4.83 4.816 2.678 4.842-2.847.067-16.431-4.868-2.785-4.894 2.899.036 16.485z"/><path d="m127.13 175.117 5.878 3.363-.071 17.582-5.826 3.427-5.829-3.241-.039-17.644z" fill="#fff"/><path d="M127.111 200.488a1 1 0 0 1-.486-.126l-5.829-3.241a1 1 0 0 1-.514-.872l-.038-17.644c0-.354.186-.682.49-.862l5.887-3.487a.997.997 0 0 1 1.006-.008l5.878 3.363a.998.998 0 0 1 .503.872l-.071 17.582a1 1 0 0 1-.493.858l-5.826 3.427a1 1 0 0 1-.507.138zm-4.83-4.83 4.816 2.678 4.843-2.848.066-16.43-4.867-2.785-4.894 2.899.036 16.485z"/></svg></g><g transform="translate(1825.2 1142.3999999999999) rotate(0.0 22.799999999999955 101.40000000000009) scale(1.402041569302666 1.403829380736804)"><svg width="32.524" height="144.462" viewBox="0 0 32.524 144.462"><path d="m31.524 1-.545 116.91c0 2.06-.671 3.717-2.081 5.8l-12.637 19.753-12.192-19.351c-1.709-2.614-3.07-4.084-3.07-6.202V1S7.87 2.419 16.261 2.597C24.894 2.781 31.523 1 31.523 1Z" style="fill:#87c159"/><path d="M16.262 144.463h-.003a1 1 0 0 1-.843-.467L3.224 124.645a70.026 70.026 0 0 0-.93-1.377C1.012 121.4 0 119.926 0 117.91V1A1 1 0 0 1 1.202.021c.068.014 6.887 1.402 15.081 1.577C24.658 1.78 31.2.052 31.265.034a.998.998 0 0 1 1.26.97l-.545 116.91c0 2.15-.653 3.992-2.253 6.356l-12.622 19.731a1 1 0 0 1-.842.461ZM2 2.205v115.704c0 1.396.773 2.521 1.943 4.226.303.441.627.913.964 1.429l11.361 18.032 11.788-18.426c1.388-2.051 1.923-3.52 1.923-5.261l.539-115.645c-2.346.509-7.715 1.471-14.277 1.332A97.133 97.133 0 0 1 2 2.204Z"/></svg></g></svg>