<?xml version="1.0" standalone="no"?><?xml-stylesheet type="text/css" href="https://wps.processon.com/themes/default/wps/mind/icons/icons.css" ?><!DOCTYPE svg PUBLIC "-//W3C//DTD SVG 1.1//EN" "http://www.w3.org/Graphics/SVG/1.1/DTD/svg11.dtd"><svg id="SvgjsSvg1186" width="591" height="358" xmlns="http://www.w3.org/2000/svg" version="1.1" xmlns:xlink="http://www.w3.org/1999/xlink" xmlns:svgjs="http://svgjs.com/svgjs"><defs id="SvgjsDefs1187"><pattern patternUnits="userSpaceOnUse" id="pattern_mark_0" width="300" height="300"><text x="150" y="100" fill="rgba(229,229,229,0.8)" font-size="18" transform="rotate(-45, 150, 150)" style="dominant-baseline: middle; text-anchor: middle;"></text></pattern><pattern patternUnits="userSpaceOnUse" id="pattern_mark_1" width="300" height="300"><text x="150" y="200" fill="rgba(229,229,229,0.8)" font-size="18" transform="rotate(-45, 150, 150)" style="dominant-baseline: middle; text-anchor: middle;"></text></pattern><marker id="SvgjsMarker1237" markerWidth="13" markerHeight="9" refX="9.5" refY="4.5" viewBox="0 0 13 9" orient="auto" markerUnits="userSpaceOnUse" stroke-dasharray="0,0"><path id="SvgjsPath1238" d="M0,0 L13,4.5 L0,9 L0,0" fill="#323232" stroke="#323232" stroke-width="1"></path></marker><marker id="SvgjsMarker1241" markerWidth="13" markerHeight="9" refX="9.5" refY="4.5" viewBox="0 0 13 9" orient="auto" markerUnits="userSpaceOnUse" stroke-dasharray="0,0"><path id="SvgjsPath1242" d="M0,0 L13,4.5 L0,9 L0,0" fill="#323232" stroke="#323232" stroke-width="1"></path></marker><marker id="SvgjsMarker1245" markerWidth="13" markerHeight="9" refX="9.5" refY="4.5" viewBox="0 0 13 9" orient="auto" markerUnits="userSpaceOnUse" stroke-dasharray="0,0"><path id="SvgjsPath1246" d="M0,0 L13,4.5 L0,9 L0,0" fill="#323232" stroke="#323232" stroke-width="1"></path></marker><marker id="SvgjsMarker1249" markerWidth="13" markerHeight="9" refX="9.5" refY="4.5" viewBox="0 0 13 9" orient="auto" markerUnits="userSpaceOnUse" stroke-dasharray="0,0"><path id="SvgjsPath1250" d="M0,0 L13,4.5 L0,9 L0,0" fill="#323232" stroke="#323232" stroke-width="1"></path></marker><marker id="SvgjsMarker1253" markerWidth="13" markerHeight="9" refX="9.5" refY="4.5" viewBox="0 0 13 9" orient="auto" markerUnits="userSpaceOnUse" stroke-dasharray="0,0"><path id="SvgjsPath1254" d="M0,0 L13,4.5 L0,9 L0,0" fill="#323232" stroke="#323232" stroke-width="1"></path></marker><marker id="SvgjsMarker1257" markerWidth="13" markerHeight="9" refX="9.5" refY="4.5" viewBox="0 0 13 9" orient="auto" markerUnits="userSpaceOnUse" stroke-dasharray="0,0"><path id="SvgjsPath1258" d="M0,0 L13,4.5 L0,9 L0,0" fill="#323232" stroke="#323232" stroke-width="1"></path></marker><pattern id="SvgjsPattern1261" x="0" y="0" width="67" height="60" patternUnits="userSpaceOnUse"><image id="SvgjsImage1262" xlink:href="https://iconsapi.com/5ee75218e4b01754b3cba191.svg" width="67" height="60" preserveAspectRatio="none" crossOrigin="anonymous" x="0" y="0"></image></pattern><pattern id="SvgjsPattern1265" x="0" y="0" width="67" height="60" patternUnits="userSpaceOnUse"><image id="SvgjsImage1266" xlink:href="https://iconsapi.com/5ee75218e4b01754b3cba191.svg" width="67" height="60" preserveAspectRatio="none" crossOrigin="anonymous" x="0" y="0"></image></pattern></defs><rect id="svgbackgroundid" width="591" height="358" fill="transparent"></rect><rect id="SvgjsRect1189" width="591" height="358" fill="url(#pattern_mark_0)"></rect><rect id="SvgjsRect1190" width="591" height="358" fill="url(#pattern_mark_1)"></rect><g id="SvgjsG1191" transform="translate(207,25)"><path id="SvgjsPath1192" d="M 0 0L 153 0L 153 40L 0 40Z" stroke="rgba(239,184,27,1)" stroke-width="1.5" fill-opacity="1" fill="#f6eed1"></path><g id="SvgjsG1193"><text id="SvgjsText1194" font-family="微软雅黑" text-anchor="middle" font-size="13px" width="133px" fill="#323232" font-weight="400" align="middle" lineHeight="125%" anchor="middle" family="微软雅黑" size="13px" weight="400" font-style="" opacity="1" y="0.875" transform="rotate(0)"><tspan id="SvgjsTspan1195" dy="16" x="76.5"><tspan id="SvgjsTspan1196" style="text-decoration:;">总线</tspan></tspan><tspan id="SvgjsTspan1197" dy="16" x="76.5"><tspan id="SvgjsTspan1198" style="text-decoration:;">platform_bus_type</tspan></tspan></text></g></g><g id="SvgjsG1199" transform="translate(109,117)"><path id="SvgjsPath1200" d="M 0 0L 153 0L 153 40L 0 40Z" stroke="rgba(239,184,27,1)" stroke-width="1.5" fill-opacity="1" fill="#f6eed1"></path><g id="SvgjsG1201"><text id="SvgjsText1202" font-family="微软雅黑" text-anchor="middle" font-size="13px" width="133px" fill="#323232" font-weight="400" align="middle" lineHeight="125%" anchor="middle" family="微软雅黑" size="13px" weight="400" font-style="" opacity="1" y="9.375" transform="rotate(0)"><tspan id="SvgjsTspan1203" dy="16" x="76.5"><tspan id="SvgjsTspan1204" style="text-decoration:;">驱动链表</tspan></tspan></text></g></g><g id="SvgjsG1205" transform="translate(313,117)"><path id="SvgjsPath1206" d="M 0 0L 153 0L 153 40L 0 40Z" stroke="rgba(239,184,27,1)" stroke-width="1.5" fill-opacity="1" fill="#f6eed1"></path><g id="SvgjsG1207"><text id="SvgjsText1208" font-family="微软雅黑" text-anchor="middle" font-size="13px" width="133px" fill="#323232" font-weight="400" align="middle" lineHeight="125%" anchor="middle" family="微软雅黑" size="13px" weight="400" font-style="" opacity="1" y="9.375" transform="rotate(0)"><tspan id="SvgjsTspan1209" dy="16" x="76.5"><tspan id="SvgjsTspan1210" style="text-decoration:;">设备链表</tspan></tspan></text></g></g><g id="SvgjsG1211" transform="translate(135.5,180)"><path id="SvgjsPath1212" d="M 13 0L 87 0C 104.33333333333333 0 104.33333333333333 39 87 39L 13 39C -4.333333333333333 39 -4.333333333333333 0 13 0Z" stroke="rgba(239,184,27,1)" stroke-width="1.5" fill-opacity="1" fill="#f6eed1"></path><g id="SvgjsG1213"><text id="SvgjsText1214" font-family="微软雅黑" text-anchor="middle" font-size="13px" width="80px" fill="#323232" font-weight="400" align="middle" lineHeight="125%" anchor="middle" family="微软雅黑" size="13px" weight="400" font-style="" opacity="1" y="8.875" transform="rotate(0)"><tspan id="SvgjsTspan1215" dy="16" x="50"><tspan id="SvgjsTspan1216" style="text-decoration:;">驱动1</tspan></tspan></text></g></g><g id="SvgjsG1217" transform="translate(135.5,242)"><path id="SvgjsPath1218" d="M 13 0L 87 0C 104.33333333333333 0 104.33333333333333 39 87 39L 13 39C -4.333333333333333 39 -4.333333333333333 0 13 0Z" stroke="rgba(239,184,27,1)" stroke-width="1.5" fill-opacity="1" fill="#f6eed1"></path><g id="SvgjsG1219"><text id="SvgjsText1220" font-family="微软雅黑" text-anchor="middle" font-size="13px" width="80px" fill="#323232" font-weight="400" align="middle" lineHeight="125%" anchor="middle" family="微软雅黑" size="13px" weight="400" font-style="" opacity="1" y="8.875" transform="rotate(0)"><tspan id="SvgjsTspan1221" dy="16" x="50"><tspan id="SvgjsTspan1222" style="text-decoration:;">驱动1</tspan></tspan></text></g></g><g id="SvgjsG1223" transform="translate(339.5,180)"><path id="SvgjsPath1224" d="M 13 0L 87 0C 104.33333333333333 0 104.33333333333333 39 87 39L 13 39C -4.333333333333333 39 -4.333333333333333 0 13 0Z" stroke="rgba(239,184,27,1)" stroke-width="1.5" fill-opacity="1" fill="#f6eed1"></path><g id="SvgjsG1225"><text id="SvgjsText1226" font-family="微软雅黑" text-anchor="middle" font-size="13px" width="80px" fill="#323232" font-weight="400" align="middle" lineHeight="125%" anchor="middle" family="微软雅黑" size="13px" weight="400" font-style="" opacity="1" y="8.875" transform="rotate(0)"><tspan id="SvgjsTspan1227" dy="16" x="50"><tspan id="SvgjsTspan1228" style="text-decoration:;">驱动1</tspan></tspan></text></g></g><g id="SvgjsG1229" transform="translate(339.5,242)"><path id="SvgjsPath1230" d="M 13 0L 87 0C 104.33333333333333 0 104.33333333333333 39 87 39L 13 39C -4.333333333333333 39 -4.333333333333333 0 13 0Z" stroke="rgba(239,184,27,1)" stroke-width="1.5" fill-opacity="1" fill="#f6eed1"></path><g id="SvgjsG1231"><text id="SvgjsText1232" font-family="微软雅黑" text-anchor="middle" font-size="13px" width="80px" fill="#323232" font-weight="400" align="middle" lineHeight="125%" anchor="middle" family="微软雅黑" size="13px" weight="400" font-style="" opacity="1" y="8.875" transform="rotate(0)"><tspan id="SvgjsTspan1233" dy="16" x="50"><tspan id="SvgjsTspan1234" style="text-decoration:;">驱动1</tspan></tspan></text></g></g><g id="SvgjsG1235"><path id="SvgjsPath1236" d="M283.5 65.75L283.5 91L185.5 91L185.5 114.30000000000001" stroke="#323232" stroke-width="1.5" fill="none" marker-end="url(#SvgjsMarker1237)"></path></g><g id="SvgjsG1239"><path id="SvgjsPath1240" d="M283.5 65.75L283.5 91L389.5 91L389.5 114.30000000000001" stroke="#323232" stroke-width="1.5" fill="none" marker-end="url(#SvgjsMarker1241)"></path></g><g id="SvgjsG1243"><path id="SvgjsPath1244" d="M185.5 157.75L185.5 168.5L185.5 168.5L185.5 177.3" stroke="#323232" stroke-width="1.5" fill="none" marker-end="url(#SvgjsMarker1245)"></path></g><g id="SvgjsG1247"><path id="SvgjsPath1248" d="M185.5 219.75L185.5 230.5L185.5 230.5L185.5 239.3" stroke="#323232" stroke-width="1.5" fill="none" marker-end="url(#SvgjsMarker1249)"></path></g><g id="SvgjsG1251"><path id="SvgjsPath1252" d="M389.5 157.75L389.5 168.5L389.5 168.5L389.5 177.3" stroke="#323232" stroke-width="1.5" fill="none" marker-end="url(#SvgjsMarker1253)"></path></g><g id="SvgjsG1255"><path id="SvgjsPath1256" d="M389.5 219.75L389.5 230.5L389.5 230.5L389.5 239.3" stroke="#323232" stroke-width="1.5" fill="none" marker-end="url(#SvgjsMarker1257)"></path></g><g id="SvgjsG1259" transform="translate(152,273)"><path id="SvgjsPath1260" d="M 0 0L 67 0L 67 60L 0 60Z" stroke="none" fill="url(#SvgjsPattern1261)"></path></g><g id="SvgjsG1263" transform="translate(356,273)"><path id="SvgjsPath1264" d="M 0 0L 67 0L 67 60L 0 60Z" stroke="none" fill="url(#SvgjsPattern1265)"></path></g><g id="SvgjsG1267" transform="translate(25,179.5)"><path id="SvgjsPath1268" d="M 0 0L 100 0L 100 40L 0 40Z" stroke="none" fill="none"></path><g id="SvgjsG1269"><text id="SvgjsText1270" font-family="微软雅黑" text-anchor="middle" font-size="13px" width="100px" fill="#323232" font-weight="400" align="middle" lineHeight="125%" anchor="middle" family="微软雅黑" size="13px" weight="400" font-style="" opacity="1" y="9.375" transform="rotate(0)"><tspan id="SvgjsTspan1271" dy="16" x="50"><tspan id="SvgjsTspan1272" style="text-decoration:;">platfom_driver</tspan></tspan></text></g></g><g id="SvgjsG1273" transform="translate(466,179.5)"><path id="SvgjsPath1274" d="M 0 0L 100 0L 100 40L 0 40Z" stroke="none" fill="none"></path><g id="SvgjsG1275"><text id="SvgjsText1276" font-family="微软雅黑" text-anchor="middle" font-size="13px" width="100px" fill="#323232" font-weight="400" align="middle" lineHeight="125%" anchor="middle" family="微软雅黑" size="13px" weight="400" font-style="" opacity="1" y="9.375" transform="rotate(0)"><tspan id="SvgjsTspan1277" dy="16" x="50"><tspan id="SvgjsTspan1278" style="text-decoration:;">platform_device</tspan></tspan></text></g></g><g id="normal_brand" transform="translate(230.5,203)"><text id="SvgjsText1280" font-family="Helvetica, Arial, sans-serif" style="transform:rotate(-30deg);opacity: 0.06; color:#000; font-family: Microsoft Yahei;"><tspan id="SvgjsTspan1281" font-size="26" dy="0" x="0"></tspan></text></g></svg>